<?xml version="1.0" encoding="UTF-8"?>
<svg id="Layer_1" xmlns="http://www.w3.org/2000/svg" version="1.1" viewBox="0 0 638.5 535.8">
  <!-- Generator: Adobe Illustrator 30.2.1, SVG Export Plug-In . SVG Version: 2.1.1 Build 1)  -->
  <defs>
    <style>
      .st0 {
        fill: #2D4A33;
      }

      .st1 {
        fill: #FAF6EE;
      }

      .st2 {
        fill: #2D4A33;
      }

      .st3 {
        fill: #2D4A33;
      }

      .st4 {
        fill: #2D4A33;
      }

      .st5 {
        fill: #2D4A33;
      }

      .st6 {
        fill: #2D4A33;
      }

      .st7 {
        fill: #2D4A33;
      }

      .st8 {
        fill: #2D4A33;
      }

      .st9 {
        fill: #2D4A33;
      }

      .st10 {
        fill: #2D4A33;
      }

      .st11 {
        fill: #2D4A33;
      }

      .st12 {
        fill: #2D4A33;
      }

      .st13 {
        fill: #2D4A33;
      }

      .st14 {
        fill: #2D4A33;
      }

      .st15 {
        fill: #FAF6EE;
      }

      .st16 {
        fill: #2D4A33;
      }

      .st17 {
        fill: #2D4A33;
      }

      .st18 {
        fill: #2D4A33;
      }

      .st19 {
        fill: #2D4A33;
      }

      .st20 {
        fill: #2D4A33;
      }

      .st21 {
        fill: #2D4A33;
      }

      .st22 {
        fill: #2D4A33;
      }

      .st23 {
        fill: #2D4A33;
      }

      .st24 {
        fill: #2D4A33;
      }

      .st25 {
        fill: #2D4A33;
      }

      .st26 {
        fill: #2D4A33;
      }

      .st27 {
        fill: #2D4A33;
      }

      .st28 {
        fill: #2D4A33;
      }

      .st29 {
        fill: #2D4A33;
      }

      .st30 {
        fill: #2D4A33;
      }

      .st31 {
        fill: #2D4A33;
      }

      .st32 {
        fill: #2D4A33;
      }

      .st33 {
        fill: #2D4A33;
      }

      .st34 {
        fill: #2D4A33;
      }

      .st35 {
        fill: #2D4A33;
      }

      .st36 {
        fill: #2D4A33;
      }

      .st37 {
        fill: #2D4A33;
      }

      .st38 {
        fill: #2D4A33;
      }

      .st39 {
        fill: #2D4A33;
      }

      .st40 {
        fill: #2D4A33;
      }

      .st41 {
        fill: #2D4A33;
      }

      .st42 {
        fill: #2D4A33;
      }

      .st43 {
        fill: #2D4A33;
      }

      .st44 {
        fill: #2D4A33;
      }

      .st45 {
        fill: #2D4A33;
      }

      .st46 {
        fill: #2D4A33;
      }

      .st47 {
        fill: #2D4A33;
      }

      .st48 {
        fill: #2D4A33;
      }

      .st49 {
        fill: #2D4A33;
      }

      .st50 {
        fill: #2D4A33;
      }

      .st51 {
        fill: #2D4A33;
      }

      .st52 {
        fill: #2D4A33;
      }

      .st53 {
        fill: #2D4A33;
      }

      .st54 {
        fill: #2D4A33;
      }

      .st55 {
        fill: #2D4A33;
      }

      .st56 {
        fill: #2D4A33;
      }

      .st57 {
        fill: #2D4A33;
      }

      .st58 {
        fill: #2D4A33;
      }

      .st59 {
        fill: #2D4A33;
      }

      .st60 {
        fill: #2D4A33;
      }

      .st61 {
        fill: #2D4A33;
      }

      .st62 {
        fill: #2D4A33;
      }

      .st63 {
        fill: #2D4A33;
      }

      .st64 {
        fill: #2D4A33;
      }

      .st65 {
        fill: #2D4A33;
      }

      .st66 {
        fill: #2D4A33;
      }

      .st67 {
        fill: #2D4A33;
      }

      .st68 {
        fill: #2D4A33;
      }

      .st69 {
        fill: #2D4A33;
      }

      .st70 {
        fill: #2D4A33;
      }

      .st71 {
        fill: #2D4A33;
      }

      .st72 {
        fill: #2D4A33;
      }

      .st73 {
        fill: #2D4A33;
      }

      .st74 {
        fill: #2D4A33;
      }

      .st75 {
        fill: #FAF6EE;
      }

      .st76 {
        fill: #2D4A33;
      }

      .st77 {
        fill: #2D4A33;
      }

      .st78 {
        fill: #2D4A33;
      }

      .st79 {
        fill: #2D4A33;
      }

      .st80 {
        fill: #2D4A33;
      }

      .st81 {
        fill: #2D4A33;
      }

      .st82 {
        fill: #2D4A33;
      }

      .st83 {
        fill: #2D4A33;
      }

      .st84 {
        fill: #2D4A33;
      }

      .st85 {
        fill: #2D4A33;
      }

      .st86 {
        fill: #2D4A33;
      }

      .st87 {
        fill: #2D4A33;
      }

      .st88 {
        fill: #2D4A33;
      }

      .st89 {
        fill: #2D4A33;
      }

      .st90 {
        fill: #2D4A33;
      }

      .st91 {
        fill: #2D4A33;
      }

      .st92 {
        fill: #2D4A33;
      }

      .st93 {
        fill: #2D4A33;
      }

      .st94 {
        fill: #2D4A33;
      }

      .st95 {
        fill: #2D4A33;
      }

      .st96 {
        fill: #2D4A33;
      }

      .st97 {
        fill: #2D4A33;
      }

      .st98 {
        fill: #2D4A33;
      }

      .st99 {
        fill: #2D4A33;
      }

      .st100 {
        fill: #2D4A33;
      }

      .st101 {
        fill: #2D4A33;
      }

      .st102 {
        fill: #2D4A33;
      }

      .st103 {
        fill: #2D4A33;
      }

      .st104 {
        fill: #2D4A33;
      }

      .st105 {
        fill: #2D4A33;
      }

      .st106 {
        fill: #2D4A33;
      }

      .st107 {
        fill: #2D4A33;
      }

      .st108 {
        fill: #2D4A33;
      }

      .st109 {
        fill: #2D4A33;
      }

      .st110 {
        fill: #FAF6EE;
      }

      .st111 {
        fill: #2D4A33;
      }

      .st112 {
        fill: #2D4A33;
      }

      .st113 {
        fill: #2D4A33;
      }

      .st114 {
        fill: #2D4A33;
      }

      .st115 {
        fill: #2D4A33;
      }

      .st116 {
        fill: #2D4A33;
      }

      .st117 {
        fill: #2D4A33;
      }

      .st118 {
        fill: #2D4A33;
      }

      .st119 {
        fill: #2D4A33;
      }

      .st120 {
        fill: #2D4A33;
      }

      .st121 {
        fill: #2D4A33;
      }

      .st122 {
        fill: #2D4A33;
      }

      .st123 {
        fill: #2D4A33;
      }

      .st124 {
        fill: #2D4A33;
      }

      .st125 {
        fill: #2D4A33;
      }

      .st126 {
        fill: #2D4A33;
      }

      .st127 {
        fill: #2D4A33;
      }

      .st128 {
        fill: #2D4A33;
      }

      .st129 {
        fill: #2D4A33;
      }

      .st130 {
        fill: #2D4A33;
      }

      .st131 {
        fill: #2D4A33;
      }

      .st132 {
        fill: #2D4A33;
      }

      .st133 {
        fill: #2D4A33;
      }

      .st134 {
        fill: #2D4A33;
      }

      .st135 {
        fill: #2D4A33;
      }

      .st136 {
        fill: #2D4A33;
      }

      .st137 {
        fill: #2D4A33;
      }

      .st138 {
        fill: #2D4A33;
      }

      .st139 {
        fill: #2D4A33;
      }

      .st140 {
        fill: #2D4A33;
      }

      .st141 {
        fill: #2D4A33;
      }

      .st142 {
        fill: #2D4A33;
      }

      .st143 {
        fill: #FAF6EE;
      }

      .st144 {
        fill: #2D4A33;
      }

      .st145 {
        fill: #2D4A33;
      }

      .st146 {
        fill: #2D4A33;
      }

      .st147 {
        fill: #2D4A33;
      }

      .st148 {
        fill: #2D4A33;
      }

      .st149 {
        fill: #2D4A33;
      }

      .st150 {
        fill: #2D4A33;
      }

      .st151 {
        fill: #2D4A33;
      }

      .st152 {
        fill: #2D4A33;
      }

      .st153 {
        fill: #2D4A33;
      }

      .st154 {
        fill: #2D4A33;
      }

      .st155 {
        fill: #2D4A33;
      }

      .st156 {
        fill: #2D4A33;
      }

      .st157 {
        fill: #2D4A33;
      }

      .st158 {
        fill: #2D4A33;
      }

      .st159 {
        fill: #2D4A33;
      }

      .st160 {
        fill: #2D4A33;
      }

      .st161 {
        fill: #2D4A33;
      }

      .st162 {
        fill: #2D4A33;
      }

      .st163 {
        fill: #2D4A33;
      }

      .st164 {
        fill: #2D4A33;
      }

      .st165 {
        fill: #2D4A33;
      }

      .st166 {
        fill: #2D4A33;
      }

      .st167 {
        fill: #2D4A33;
      }

      .st168 {
        fill: #2D4A33;
      }

      .st169 {
        fill: #2D4A33;
      }

      .st170 {
        fill: #2D4A33;
      }

      .st171 {
        fill: #2D4A33;
      }

      .st172 {
        fill: #2D4A33;
      }

      .st173 {
        fill: #2D4A33;
      }

      .st174 {
        fill: #2D4A33;
      }

      .st175 {
        fill: #2D4A33;
      }

      .st176 {
        fill: #2D4A33;
      }

      .st177 {
        fill: #2D4A33;
      }

      .st178 {
        fill: #2D4A33;
      }

      .st179 {
        fill: #2D4A33;
      }

      .st180 {
        fill: #2D4A33;
      }

      .st181 {
        fill: #2D4A33;
      }

      .st182 {
        fill: #2D4A33;
      }

      .st183 {
        fill: #2D4A33;
      }

      .st184 {
        fill: #2D4A33;
      }

      .st185 {
        fill: #2D4A33;
      }

      .st186 {
        fill: #2D4A33;
      }

      .st187 {
        fill: #2D4A33;
      }

      .st188 {
        fill: #2D4A33;
      }

      .st189 {
        fill: #2D4A33;
      }

      .st190 {
        fill: #2D4A33;
      }

      .st191 {
        fill: #2D4A33;
      }

      .st192 {
        fill: #2D4A33;
      }

      .st193 {
        fill: #2D4A33;
      }

      .st194 {
        fill: #2D4A33;
      }

      .st195 {
        fill: #2D4A33;
      }

      .st196 {
        fill: #2D4A33;
      }

      .st197 {
        fill: #2D4A33;
      }

      .st198 {
        fill: #2D4A33;
      }

      .st199 {
        fill: #2D4A33;
      }

      .st200 {
        fill: #2D4A33;
      }

      .st201 {
        fill: #2D4A33;
      }

      .st202 {
        fill: #2D4A33;
      }

      .st203 {
        fill: #2D4A33;
      }

      .st204 {
        fill: #2D4A33;
      }

      .st205 {
        fill: #2D4A33;
      }

      .st206 {
        fill: #2D4A33;
      }

      .st207 {
        fill: #2D4A33;
      }

      .st208 {
        fill: #2D4A33;
      }

      .st209 {
        fill: #2D4A33;
      }

      .st210 {
        fill: #2D4A33;
      }

      .st211 {
        fill: #2D4A33;
      }

      .st212 {
        fill: #2D4A33;
      }

      .st213 {
        fill: #2D4A33;
      }

      .st214 {
        fill: #2D4A33;
      }

      .st215 {
        fill: #2D4A33;
      }

      .st216 {
        fill: #2D4A33;
      }

      .st217 {
        fill: #2D4A33;
      }

      .st218 {
        fill: #2D4A33;
      }

      .st219 {
        fill: #2D4A33;
      }

      .st220 {
        fill: #2D4A33;
      }

      .st221 {
        fill: #2D4A33;
      }

      .st222 {
        fill: #2D4A33;
      }

      .st223 {
        fill: #2D4A33;
      }

      .st224 {
        fill: #2D4A33;
      }

      .st225 {
        fill: #2D4A33;
      }

      .st226 {
        fill: #2D4A33;
      }

      .st227 {
        fill: #2D4A33;
      }

      .st228 {
        fill: #2D4A33;
      }

      .st229 {
        fill: #2D4A33;
      }

      .st230 {
        fill: #2D4A33;
      }

      .st231 {
        fill: #2D4A33;
      }

      .st232 {
        fill: #2D4A33;
      }

      .st233 {
        fill: #2D4A33;
      }
    </style>
  </defs>
  <path class="st140" d="M254.8,12.2c1-.2,2.4,1.2,2.8,2.3,3.2,3,6.1,6.2,8.8,9.6l-.4.8c1.2,1.8,2.7,3.2,4.3,4.4.3-.2.6-.3.7-.2,3.4,3.3,6.8,7,9.8,10.5,1.6,1.3,2.3,2.4,2.1,3.5,1.8,2.6,5,5.7,7.8,7-.3-.3-.3-.5,0-.8h.7c4.6-2,8.4-4.3,11.4-7,.8-.4,1.8-1.4,2.6-1.9,3.2-2.2,6.5-3.6,9.9-4.3,5.1,2.8,10,5.9,14.7,9.2.8.6,1.8,1.6,2.6,2,2.5,2.3,5.6,4.6,9.4,6.8v.8c34.8.7,71.1.6,105.9,0,2.6-.6,5.5,1.3,7.7,2.8,1.8,1.1,4.3,3.5,4.2,5.6,1,3.5,1.7,7,2.1,10.5.6,2.8-1.3,7.3-3.5,9.1-.9,2.4-2.3,4.7-4.2,7l-2.8,4.2-27.9,41.3-.3,1.5c-.5.8-1.5,1.8-1.9,2.6-1.6,1.7-3.1,3.6-4.3,5.8l-2.8,4.2c-1.7,2.9-3.6,5.8-5.6,8.4l-2.8,4.2-2.8,4.2c-1.2,1.3-2,2.7-2.2,4.2-.8,1.8-2.2,3.1-3.3,4.7-1.6,1.2-3.2,3.9-3.7,5.8-.9,1-1.3,2.7-2.7,3.5l-7.7,11.2c-3,4.1-5.6,8.3-7.8,12.6-.6.8-1.5,1.9-1.9,2.7-1.5,2-3.4,4.4-5.7,7.1l.3.4c-6.5,9.6-12.9,19.4-19.1,29.1-.4,1.9-2.1,3.1-2.9,4.6-6.5,9.4-13.3,19.5-20.4,30.3-6.3,9.6-12.6,19.2-18.9,28.8-1.7,2.8-3.6,5.6-5.6,8.4-1,1.7-2.2,3.1-3.5,4.2-2.1,4.9-5.8,10.2-9.1,14.7-6.7,10.7-13.7,21.3-21,31.6-3.6,4.9-6.8,10.1-9.8,15.4l-5.5,8.3c-3.6,4.3-5.9,9.4-7,15.3l-.8.2c-1.2,4.9.3,12.9,4.2,17.5-.4-1,0-1.3.8-.5.9,1.5,2.5,2.4,3.2,4.1,3.3,4.3,10.2,8.4,13.6,9.2,1,.5,2.1.9,3.2,1.2l.7-.4c-1.7-4.6-4.1-12.2,1.6-4,.3.1.8.8,1.1.6.3-.2.4-1.2.4-1.7v-9.9c0-.7.2-1.4.7-1.4.6.4.7,1.9.7,2.7-.1,2.6-.9,1.5-.1.3.1-.2.4-.2.8-.2.2.2.6.4.7.7-.3.7.3,5.1.8,3.5.8,0,.5.8.8,1.9.3-.3.6-.5,1-.5,1.3-2.2,2.4-2.9,3.2-2.1,0,0-.8,3.6-2.5,10.9,0-.5.4-.5.9-.3,0,.3.4.3.5.5,1-1,1.4-.5.8.8.4.3.9.4,1.5.5.9,0,.8.8.7,1.6v.7c0,.5.6.9,1.5,1.1l14.7,5v.9c5.9,2.2,12.6,4.3,18.9,4.9,14.3,3.5,30.1,7.5,44.2,11.9-.2.5-.5.5-.9.3,6.2,1.5,12.3,2.5,18.5,3.2,5.5.8,11.5,1.9,16.8,3.5,11.8,1.9,23.8,4.1,35.9,6.7l1.3-.5v-1.3c-.2-.8-.2-1.1.5-.8-1.5-3.7-1-4.6,2.3-2.1h.6c1-2.5,1.3-5.4.8-8.5l.7-.4c.7.6,1,1.3,1.4,2.1-.2,1.5,0,2.8,1,3.9.4-.1.8-.2,1.2-.2.9-1.5,1.9-2.8,3.1-3.9.8,1.5,1,3.4.4,5.7-1.1,2.6-1,4.2,0,5,.1-1,.3-2.2,1.4-2.2.5-.3,1-.5,1.5-.6,2.2-1.7,3.1-1.7,2.6-.2-1.2,1.7-1.8,3.5-1.9,5.2.3.3.5.8.6,1.2,13.8,3.1,27.6,5.9,41.3,8.5,11.2,1.3,22.4,3,33.7,4.9,9.8.8,20,2.7,29.7,4.7.4,0,.8.5,1.1.9,3.4,1.3,2.2,2-3.5,2.1-2.9.7-6.8.1-9.8-.7-39.9-4.5-79.9-10.2-120-16.8-30.2-5.7-45.4-8.5-45.4-8.5l-3-1.3c.1-.4.7-.3.6-.3-6.7-1.5-13.6-2.8-20.2-4.1-.8-.1-1.4-.2-2.2.1-.2.3-.3.4-.4.4-14-2.5-30.8-7.1-44.8-11-8.5-2.4-17-4.8-25.4-7.5-.8-.3-1.6-.8-2.3-1.5-5-1.7-10.1-3.4-15.4-4.9.3,1.5-2.8.6-2.8-.7-1.4-.9-3.2-1.6-5.6-2.1-.7.2-1.3.3-1.9.2-22.1-6-45.8-16.7-63.4-30.4-5.1-4.1-10.8-10.1-11.2-16.8.3-3.2.4-6.6,0-9.8.3-2.3,1-4.9,2.3-7.7.6-1,1-1.9,1.9-2.6.5,0,1.3-.8,2.2-2.3.6-1.3,2.1-2.7,3.5-2.8,2.3-1.4,4.3-3.2,6-5.2-.6,0-.6-.2,0-.5,5.4-4.2,12.2-8.5,18.6-11.1v-.5c16.2-7.9,32.1-16.8,47.7-26.8,7.5-5.1,14.1-11.7,19.6-18.9,2.6-3.9,4.8-7.5,6-12.1,4.4-16.7-4.6-26.5-15.1-37.7-8.3-8.2-5.9-20.5,1.2-28.2l.3-.6c.8-.7,2-1.8,2.6-2.6l6.4-5.1c1.2-.7,2-1.4,2.3-2.2.9-1.1,2-1.9,3.3-2.4,5.2-3.6,10.3-7.2,15.4-10.8,5.5-4.3,10.4-8.7,14.9-13.4,2.2-2.4,4.7-4.4,6.8-6.8.8-.2,3.9-3,4.4-5.1,1.1-1.2,1.8-3.2,3.4-4,2.4-2.7,4.5-5.5,6.3-8.6,5.3-8.2,6.8-17.2,7-26.7.4-1.9.2-3.7-.7-5.6h-.9c-1.6-4.3-3.4-8.4-6.1-11.9-.8-1.4-1.7-2.4-2.8-2.8-.3-.4-1-1.1-1.4-1.4-.7-1.6-3.2-3.8-4.2-3.7-1.7-1.3-4.1-2.3-5.4-4.1-12.4-7.2-25.2-13.5-38.4-18.9-6.8-3.7-11.6-6.3-5.2-13.9,1.1-1.1,1.9-2.1,3.5-2.7,1.7-.1,3-1.2,4.2-2.3l-1.5-.8c-1.1.4-2.5.6-3.4,1.3-2.5.7-5.4,1.9-8.6,3.6-4.7,2.8-7.5,6.6-8.5,11.4l1,3.3c1.7,3.3,4.6,5.4,7.6,7.4,7.1,4.4,14.4,8.3,21.8,11.7,2,1.3,4.5,2.1,6.1,4,.2.4.7,1.1,1.6,2.2,3.5,1.9,7,4.4,9.1,7.7,1.7,1.6,4,4.1,4.2,6.3,1,.1,1.8,2.5,1.4,3.5,1.2,6.8,1.6,13-1.4,19.6.4.3.7.5.7.6-1.5,5.4-6.3,11.2-9.9,15.4v.9c0,0-1.2,1.2-1.2,1.2-3.8,3.6-8,7.6-12.7,12.1-.2.6-.4.6-.7,0-1.2,0-2.3.8-3.4,2.4-1.4.3-2.2.9-2.2,1.8l.2.7-4.3,3.7-14.8,9.7c-2.6,1.7-5.2,3.3-7.7,4.9-7.1,4.6-13.7,9.8-19.8,15.4-.8.6-1.4,2.7-2.7,2.7-2.1,1.9-4,4-5.6,6.5-2.4,4-3.9,8.4-4.8,13l-.8.3c-.6,2.3-.4,5.2.7,8.4l.9.5c1.8,4.5,4.4,8.6,7.6,12.3,4,3.8,8.7,9.1,9,14.6-.4,1.6-.6,3.3,0,4.9l.3.9c-3.4,7.5-8.9,13.5-16.4,18.1-2.1,1.7-4.2,2.8-6.3,3.5,0,.9-.7,1.3-1.4.7-1.7,1.2-3.1,1.6-4.2,1.4-1.3-.9-1.1-1.4.2-2.1.9-1.2,1.3-2.1,1.2-2.8-1,.9-1.4.5-.7-.7-1.1,1.2-1.9,1.3-2.3.4,0-2.1,0-3.3-.4-3.7-.6,1.7-1.2,3.3-1.9,4.9l-1.1-.2c.3,1.6-1.4.4-1.3.4,1.2.2,2.1,1.4,1.4,2.5,1.6,0,2.3.5,2,1.5,1.5,1,1.3,1.9-.6,2.7,1.7.3,1.5.8,0,1.4-.2,0-.5.4-.7.5-11.2,4.4-22.7,9.6-33.6,14.9-3.3,1.7-6.6,3.1-9.8,4.2-5.8,3.4-12.1,6.5-18.2,9.1-1.1,1.5-3.8,2.6-5.6,2.8-1.1,1.8-4.8,3.8-7,4.2-1.3,1.7-3.6,3.7-5.6,4.2l-.9,1.3c-13.6,9.8-24,22.6-26.2,39.4l-.9.7c-.6,3.5-.6,7,0,10.5l.9.6c1.2,5.6,2.7,11,4.7,16.2,6.2,8.5,14,16.3,22.5,22.5,1.6.4,3.3,1.3,4.8,2.6,2,1.3,2.6,1.3,1.7.1,2.1-1.1.2-3.4.5-5l-.8-5,.8-.4c-.5-.8-1-1.9,0-2.2h.9s3.3,4.9,3.3,4.9c-.1-.6.1-.8.7-.7.9-5.5,1.3-11.1,1.3-16.8.3-.1.6,0,1,.2.4.3,1.9,7.1,1.9,8.3.2,3.3.5,4,.8,2.1.6.8.4,1.8.9,2.8.6-.7.5-1.2,1-1.4,1-1.1,1.6-2.2,1.7-3.5.4-1,1.3-1.8,2-2.6,3.1-3.1,1.8,4,0,5.4-1.2,3.4-2.3,7.6-2.1,11.2.6,1.7.9,1.9,1,.8h.9c1.1-.4,1.6-.9,1.5-1.5.3-.6,1-.9,1.4-1.3,3.2-2.1,4.2-.2,1.4,2.1.1.1.3.2.2.3-.9,2.1-4.2,9.2-4.7,9.4,0,0,.4-.5.9.2.1.4.4.8.7,1.1,4.2,2.2,9.3,4.6,15.2,7.3l.2.6c1.4-.2,4.2.6,4.2,2.1,5.7,2.9,11.6,5.3,17.5,7,3.5.8,7,2,10.5,3.5,14.9,6,29.8,11.5,44.7,16.6v.9c4.3,1.9,10.1,3.9,14.9,4.2l.4-.4c16.5,5.2,33.2,10,49.9,14.4l.2.8.7.7c-96,.4-192.1.5-288.2.3-1.9.2-3.2-.1-3.7-1.1l-.6.6c-2.7-1-5.3-1.9-7.8-2.7-.2.6-.4.6-.7,0-10.1-6.7-13.7-22.1-5.6-31.6l-.3-.5c3.8-5.7,7.9-11.2,12.2-16.4,2.5-4,5.9-8.3,9.2-11.9,2.8-4.4,6.1-8.9,9.7-12.7l16.1-21,16.8-21.7c1.1-1.1,1.9-2.2,2.2-3.5l2.6-3.3c1.8-1.6,3.5-3.6,5-5.8.5-1.1,1.2-1.8,2.1-2.1,1.9-3.4,4.3-6.7,7-9.8l4.9-6.3,4.9-6.3c.4-.9,1.8-2.8,2.8-2.1l2.1-2.8c-.8-.5-.6-.7.7-.7l-.7-.5c1.4-1.9,2.6-3.9,3.6-5.8,1-1.1,2.1-3.2,3.3-4.1,1.1-.7,2-1.4,2.9-2.3.9-2.3,2.3-4.4,4.2-6.3,2.9-4.4,6.2-8.3,9.8-11.9.2-1.2.9-2.4,2.1-3.5,2.8-4.1,5.9-7.8,9.1-11.2,2.3-3.6,4.8-7.1,7.7-10.5l21.7-28.1c1.6-2.1,3.2-4.2,4.9-6.3,1.8-2,3.2-4.1,4.3-6.3,1-.9,1.4-2.6,2.6-3.3.6,0,1.3-.8,2.2-2.3,2.5-3.2,5.1-6.5,7.7-9.8,1.6-2.2,3.3-4.3,4.9-6.3,1.3-1.9,2.7-3.7,4.2-5.6,1-1,1.8-2.2,2.2-3.5,1-1.1,1.3-2.6,2.6-3.3.4-.2,1.2-.7,2.2-1.6,1.3-2.9,3.7-5.9,6.3-7.7.9-2.4,3.1-5.1,4.9-7,1.6-2,3.2-4.1,4.9-6.3l5.1-6.4c2.3-3.3,4.8-6.5,7.5-9.8l4.9-6.3,10.5-13.3c4.4-4.3,6.4-8.9,5.9-13.6-.6-1-1.4-1.8-2.4-2.5l-1.4-.7c-.6-.2-.6-.4,0-.7-74-.6-151.1-.6-225.2,0-2.8-.2-7.4-2.9-7.7-5.6-4.3-4.7-4.9-12.4-2.8-18.2-1-.9.6-3.2,1.4-4.2,11.7-19.9,23.4-39.7,35.1-59.6,1.7-2.4,4-4.6,6.3-6.3,3.1-2.1,8.4-4.7,11.9-3.5,19.3.6,39.5.6,58.9,0,.3-1.1,1.2-2,2.8-2.8.9-1.6,2.9-2.2,4.2-3.4,2.7-1.4,5.2-3,7.7-5,3.3-2.9,6.8-5.2,10.5-7,.2-1,1.2-1.7,2.1-2.1,3.1-2.3,5.5-4.1,7.2-5.6.5-.8,2-1.4,2.6-2,2.2-1.2,4.4-1.8,6.5-1.7l-.2.8c0,.4.7.7,2.2.8l4.1,2c.6-.8,2.1,0,2.8.7,4.5,2.7,9,5.4,13.6,8.1l2.6.4c6-3.8,11.8-7.8,17.5-11.9l24-16.1h1.2c3.3,0,6.1.6,8.4,2.1h0Z"/>
  <path class="st133" d="M256.2,447.8c2.1.5,4,1.2,5.6,2.1.8.3,1.8,1.3,2.8.7,5.2,1.5,10.4,3.2,15.4,4.9,15.7,5.7,32,9.8,48.6,13.8l24.3,5.8c7.3.8,14.6,2.2,21.7,4.2,15.9,3.1,31.8,6.6,48,9.2.2.4.3.6.4.6h-2.1c-37.8-6.5-75.4-13.7-112.8-24-31.5-8.7-93.5-26.9-117.3-46.9v-.7l13.7,8.8c15.7,10.1,33.8,16.3,51.5,21.3h0Z"/>
  <path class="st169" d="M25.4,521.4c.5-1,2.6-.5,3.5,0,96.5.2,193.1.5,289.7.7,0-1.3,2.9-1,3.5,0,.6.2.6.4,0,.7H27.1c-4.2,0-8-2.2-10.9-4.2-.3-.2-.3-.4,0-.7h.7c2.7.6,6.3,2.1,8.4,3.5h0Z"/>
  <path class="st41" d="M399.3,509.5c1.2.5,2.3,1.3,3,2.3,1.7.8,3,2.4,3.5,4.2l-14.9,2.5-14.8-3.4c.3-1.2.9-2.3,1.9-3.3,1.4-1.9,2.8-2.8,4.5-3.5,2-.5,4-1.2,6-2.2,3.8-.3,7.4.9,10.8,3.5h0Z"/>
  <path class="st194" d="M34.5,152.5c74.1.2,148.2.5,222.4.7.5,0,1,.4,1.4.7H34c-1.3,0-1.6-.6-2.3-.7-.6-.2-.6-.4,0-.7.8-.5,2.1-.5,2.8,0Z"/>
  <path class="st61" d="M322.1,520c.3.6,0,.8-.7.7-1,1.3-4.1.5-4.9-.7l-2.1-.5c-2-.5-3.5-1.2-5.6-1.7l-31.2-8.6-11.7-3.9c-4.8-.4-10.2-2.2-14.7-4.2l-9.2-3.5c-11.2-4.3-25.5-8.3-35.7-14h.7c31.7,12.1,63.6,22.8,96.6,31.6l18.4,4.9h0Z"/>
  <path class="st42" d="M423.2,489.2c2.7,0,5.3.4,8.3.9l40.1,6.1,30.2,4.2,41.4,5.6c.6.2.6.4,0,.7-40.8-4.8-81.6-10.6-122.1-17.5h2.1Z"/>
  <path class="st142" d="M496.8,522.9c1.7.8,5.6,3.8,5.8,5.5,0,.8-14.2,2.6-15.5,2-2.7-1-5.3-1.5-7.9-1.5-1.1,0-1.8.4-2.7.2-.3-.9,0-1.5.8-1.3,1.8-1.1,3.6-2.5,5.3-4.1,4.2-3.6,9.9-4.5,14.1-.8h0Z"/>
  <path class="st19" d="M397.2,475.9c.6.2.6.4,0,.7l-16.8-3.5c-5.8,0-12.1-1.8-17.5-3.5l-44.2-11.9c-6.4-.8-12.8-2.6-18.9-4.9-.9-1.7-20.4-5.8-16.1-7,37,12.7,75.1,23,113.6,30.2h0Z"/>
  <path class="st142" d="M211.3,454.8c2.1,1.2,5.2,3.3,6,5.7,0,.1-.2.4-.5.6-1.2.2-1.9.5-2.7.6-2.2-.2-4.5,0-6.9.8-3.4.2-6.8-.6-10-2.2-3,.4-3-.8,0-3.4,1-.7,1.2-2,2.2-2,4.5-2.8,8.5-2.8,11.9-.1h0Z"/>
  <path class="st125" d="M153.1,380.4c1.4-.1,2.8.6,4.2,2.1.7.3,1.2.8.7,1.4l.7,1.2c-1.7.4-2.4.7-2.1.9l.6.8-1.2.5c-2.2,0-4.3.3-6.4.8-2.8.7-5.8-.4-8.4-1.5-6.4.5-1.4-5.1,1.2-5.3.3,0,.5.2.8.4,3.9-2.5,5.7-3,9.9-1.3h0Z"/>
  <path class="st155" d="M599.2,510c3.3.3,4.4,1.1,3.2,2.2-3-.2-6-.2-8.8.1-3-.2-6.2-.6-9.1-1.3,1.6-.3.2-.6-4.2-.8-9.3-.6-18.4-1.8-27.4-3.5.5-1.1,2.2-.7,3.6-.7,1.5,0,1.6-.8,0-.8-.9,0-1-.6-.1-.6l2.1-.4,40.7,5.8h0Z"/>
  <path class="st36" d="M137.6,52.2c-.7,1.2-1.8,1.9-2.8,2.8-19.4.6-39.6.6-58.9,0-4.3,0-8,2.1-11.9,3.5-.4-.2-.3-.4,0-.7,3.3-2.3,7.6-4,12.2-4l58.5-.3c1.2,0,1.9-1.6,2.9-1.3h0Z"/>
  <path class="st21" d="M135.5,361.5c-5.9,4.2-11.3,9-16.1,14.7-12.6,15-14.8,35.4-6.3,52.6.3.6,0,.8-.7.7-2.9-5.2-4.1-11.1-5.6-16.8-.6-3.5-.6-7,0-10.5,2-9.4,4.5-18.3,11.2-26,5.1-5.9,10.7-11,16.8-15.4.6-.3.8,0,.7.7h0Z"/>
  <path class="st164" d="M447,54.3c-34.7.2-69.5.5-104.5.7h-.7l-9.4-6.8c-.5-.3-.6-.9,0-.8,3.1,1.7,5.8,3.7,9,6.3h104.7c.6,0,.9.4.8.7h0Z"/>
  <path class="st14" d="M447,54.3c3.3,0,5.7.9,8.4,2.8.3.2.3.4,0,.7-2.7-.4-4.9-2.8-7.7-2.8-34.5.6-70.7.6-105.2,0,0-.3.2-.7.8-.7h103.7Z"/>
  <path class="st154" d="M599.2,510c-1.8.3-3.8.4-5.9,0-12.4-2.6-24.7-3.7-36.8-5.4-10.3-1.4-20.6-5-30.9-5.6-.6-.2-.6-.4,0-.7l49.8,7.8c8.3,1.3,16.3,1.7,23.9,3.9h0Z"/>
  <path class="st150" d="M22.6,124.4v-.7l29.9-51.4c1.6-2.8,2.9-5.2,4.5-7.5.2-.3.4-.3.7,0-3.8,7.8-8.1,15.3-12.8,23-7.6,12.4-14.2,25-22.2,36.6h0Z"/>
  <path class="st145" d="M370.6,500.3c.5.7,1.3,1,.8,1.7-.2.2-.4.6-.8.5-3.5,0-7,.3-10.5.5-2.6-.2-4.8-1.1-6.8-2.4,5.7-6.7,11.3-6,17.3-.3h0Z"/>
  <path class="st49" d="M325.1,116.7c-6.7-3.6-13.5-7-20.7-10.3l-17.8-8.1c-3.2-1.5-7-3.5-8.4-6.9-1.3-3.1,1.5-5.8,3.3-7.6,2,.3-2.6,3.1-2.7,5.9-.2,4.7,10.9,8.8,14.4,10.4,7.1,3.3,28.8,12.3,32,16.6h0Z"/>
  <path class="st118" d="M273.5,481.1c-9-.4-10.1,3.1-17.2,1-3.2-.9-6.1-1.4-9.8-1.8,4.2-5.6,11.4-12.2,18.5-7.6,3.4,2.2,7.2,4,8.5,8.4h0Z"/>
  <path class="st152" d="M261.8,331.3c-.2.3-.4.9-.9,1.3-10.7,7.3-21.8,13.4-33.3,19.2l-13.5,6.8c-.6.3-.8,0-.7-.7l8.3-4.4c13.5-7.1,27-13.9,39.4-22.3h.7Z"/>
  <path class="st168" d="M464.5,510.9c1,.3,3.3,2.5,2.5,3.1-3,2.1-13.5,1.7-16.9-.5l1-1.2c.6-.8,1.1-1.6,2.1-1.9,4.1-1.9,7.5-2.5,11.2.6h0Z"/>
  <path class="st207" d="M451.2,94.9l-28.2,42.1c-.4,0-.5-.3-.5-.5,0-.3,0-.8.3-1.3l26.8-39.8c.5-.7,1.1-1,1.6-1.3v.7Z"/>
  <path class="st71" d="M231.6,311h-.7c6.5-6.8,12.7-8.4,16.1-18.9-.6-1.6-.4-3.3,0-4.9-1.8-5.3-5-10.5-9-14.6v-.6c2.3,3,15.7,12.8,8,25.3-3.7,6-9,9.9-14.4,13.7h0Z"/>
  <path class="st9" d="M541,515.8c1.6.8,3,1.8,4.1,3.1-4.6,2.5-11.5,2.7-16.3.2l.8-1.3c.4-.3.5-.6.7-.6,3.9-2.8,7.4-3.3,10.6-1.4Z"/>
  <path class="st53" d="M309.7,499.5l-11.6-2c2.7-4.7,7-7,12-8.4,4.5,1.9,8.6,3.9,10.9,8.9-3.8,0-7.4,2.2-11.3,1.6h0Z"/>
  <path class="st160" d="M346,140.5c.9,1.9,1.1,3.8.7,5.6.6,9.4-1,19.4-7,26.7v-.7c8.1-15.6,8.9-27.7-.7-42.8v-.7c3.9,2.7,4.8,7.9,7,11.9h0Z"/>
  <path class="st71" d="M309.3,177.1c-.6.2-.7-.9-.4-1.2,3.7-3.6,8.6-10.9,9.7-15.7,3-6.6,2.7-12.8,1.4-19.6-.3-.9-.9-2.7-1.4-3.5-.3-.6,0-.8.7-.7,4.2,9,4.6,17.6-.3,27-2.8,5.2-5.9,9.8-9.7,13.8h0Z"/>
  <path class="st71" d="M257.6,13.8v.6c-.5-1-2.3-1.4-2.8-2.3-2.3-1.5-5.1-2.2-8.4-2.1-3.8,1.9-7.5,4.3-11,7.2-4.6,3.7-9.7,5.9-14.2,9-.4-.2-.4-.4,0-.7l22.1-15c2.7-1.8,5.4-2.2,8.8-1.8,2.5.3,3.7,3.2,5.6,5.1h0Z"/>
  <path class="st88" d="M491.9,493.4c.6.2.6.4,0,.7l-23.9-4.1-11.9-2.3c-2-.4-4.7-.6-5.6-2l41.3,7.8h0Z"/>
  <path class="st164" d="M434.4,482.8c0,.3.1.9-.2,1.4l-37-7.6v-.7l37.2,6.9h0Z"/>
  <path class="st65" d="M574,525.8c-3.7.7-7.2-1.6-10.8-2,2.6-3.4,6.1-6.7,10.1-6.8,4,0,8,3.7,10,7l-9.4,1.7h0Z"/>
  <path class="st147" d="M402.3,511.8c.1-.4.4-.4.6,0,1.8,1.1,3,2.4,3.5,4.8-5.7,0-10.5,1-15.7,2.7-5.1-1.6-10.2-3-15.5-3.8.2-2.5,2-2.7,2.8-3.7,0,1-.7,1.3-1.2,2.9,20.6,4.7,8.1,3.1,28.4.8-.9-1.9-2-2.8-2.9-3.7h0Z"/>
  <path class="st224" d="M370.6,500.3c0,.2,0,.4-.4.7-2.1-2-5.2-4.9-8.7-4.7-2.8.1-5.6,2.2-7.6,4.2,6.8,4.7,14.9-.5,16.6,2-11.5,1.6-7.5,2-18.5-1.1,2.8-3.8,6.1-5.7,10.1-6.7,3.5,1.1,6.6,2.8,8.5,5.7h0Z"/>
  <path class="st37" d="M552.9,506.7c9.1.9,18.4,1.6,27.4,3.5.6.2.6.4,0,.7-2.8-.8-5.8-.5-8.9-.9l-28.2-3.3v-.7c3.1.4,6.6.4,9.8.7h0Z"/>
  <path class="st103" d="M259.9,288c.8-1.2,1.8-1.6,2.7-2.1,2.5-2.8,11.6,1.3,10.6,3.3-1,2-12.4,2-13.4-.3-.1-.3,0-.6.2-1h0Z"/>
  <path class="st150" d="M179.7,391c.4,3.2.3,6.6,0,9.8,2.4,8.5,6,10.8,11.2,16.8v.7c-2.8-2.4-5.7-4.9-8-8.1-6-8.3-6.3-18.7-1-27,1.6-.9-2,6.5-2.3,7.7h0Z"/>
  <path class="st44" d="M234.5,238.7c-4,8-6.4,16-1.8,25,1.5,3.1,3.7,5.6,5.5,8.2v.6c-3.8-3.8-6.9-7.5-8.6-12.8-1-3.1-1.3-5.9-.7-8.4,1.5-4.8,2.1-9.8,5.6-13.3v.7h0Z"/>
  <path class="st11" d="M152.8,409.1c-7.5,3.8-9.7,1.9-17.1.4,2.5-3.5,5.7-5.3,9.4-6,2.9,1.4,5.1,2.5,7.6,5.6h0Z"/>
  <path class="st164" d="M346.1,252.6c-2.5,5.2-6,9.8-9.3,14.7l-11.1,16.3v-.7c6.2-10,12.3-20.4,19.7-30.3,0-.6.8-.9.8,0h0Z"/>
  <path class="st173" d="M214.8,321.3c-10.7,5.5-22.2,9.5-32.9,14.9h-.7c8.2-5.5,22.2-9.9,30.8-14.8.9-.5,2.3-1.1,2.8-.2Z"/>
  <path class="st30" d="M10.7,486.4c-5.8,8.2-4.8,19.6,1.4,27.1,1.6,1.9,3.3,2.6,4.2,4.4v.7c-11.1-7.7-13.9-21.3-6.3-33,.6-.3.8,0,.7.7h0Z"/>
  <path class="st135" d="M252.1,394.4c-6.6,9.9-9.2,21.7-2.8,32.5.2.4-.5.6-.8.5-3.8-4.6-5.5-11.8-4.2-17.5.4-2.4,5.9-17.6,7.8-15.5h0Z"/>
  <path class="st149" d="M172.7,275.2c-5.3,8.9-12.7,16.5-18.9,25.3-.9,1.2-1.7,2.3-2.8,2.8v-.7l21-27.4h.7,0Z"/>
  <path class="st64" d="M22.6,124.4l-1.4,4.2c-2.1,5.8-1.5,13.6,2.8,18.2,1.8,2.8,4.6,4.3,7.7,5.6,0,.2,0,.5,0,.7-3.8-.9-7-3.3-9.7-6.6-5.5-6.7-4.6-16.3.6-22.9v.7h0Z"/>
  <path class="st204" d="M368.4,219.1l-11.7,17.8c-2.6,3.9-4.8,7.9-7.8,11.1.1-.7,0-1.4.6-2.2l18.2-27.3c.6-.3.8,0,.7.7h0Z"/>
  <path class="st71" d="M289.2,339.1l-21,31.6c-.2.3-.4.3-.7,0,6.3-10.9,14.4-20.9,21-31.6.2-.3.4-.3.7,0Z"/>
  <path class="st138" d="M297.6,116.8c.1.4-.7.7-1.2.4l-15-8.2c-3.6-2-13.3-7.1-13.3-11.3.2-.6.4-.6.7,0,1.9,5.9,21.8,14.5,28.8,19.1h0Z"/>
  <path class="st71" d="M207.1,483.6c-.2,0-.5,0-.7,0-3.6-.7-7.1-2.1-10.5-3.5-6.1-1.8-11.9-4.1-17.5-7-1.1-1.4-2.7-1.4-4.2-2.1-.3-.6,0-.8.7-.7l32.3,13.3h0Z"/>
  <path class="st198" d="M281.5,39.5c-.2.6-.4.6-.7,0l-10.4-10.3c-1.6-1.2-3-2.7-4.3-4.4-.8-3-7.3-7.6-8.4-10.4v-.6c3.1,3,6,6.2,9.2,9.6l14.7,16.1Z"/>
  <polygon class="st44" points="525.6 498.3 525.6 499 518.4 498.6 491.9 494.1 491.9 493.4 525.6 498.3"/>
  <path class="st192" d="M272.3,262.6v.7c-2.6-2.8-5.1-6.2-5.6-10.4-1-7.7,1.8-14.2,7.2-19.1,2.3,1.4-2.9,2.2-4.5,8.4-.5,1.9-2.1,3.4-2,5.9.2,4.6,1.5,10.9,4.9,14.5h0Z"/>
  <path class="st106" d="M135.5,451.3c.3.6,0,.8-.7.7-7.4-4-18.1-14.7-22.5-22.5.3-.2.5-.4.7-.7.7,1.4,2.1,3.1,3.2,4.6,5.2,7.3,12,13.3,19.3,17.9h0Z"/>
  <path class="st165" d="M479.2,528.9c2.1-1.9,9.1,2.3,13.3.9,3.3-1.1,5.9-1.5,9.6-1.7-2-2.2-3.5-4.2-5.3-5.3h.7c2,1.9,5.1,2.2,5.7,6.2l-12.7,2.2c-4,.7-7.6-2-11.3-2.3h0Z"/>
  <path class="st195" d="M259.9,288c3.2,3,8.1,2.9,12.5,1-4.8-6.5-7.3-2.1-9.8-3.1,3.7-3.4,9.9-.3,11.5,3.5-4.4,3.5-15.2,1.4-15-.1,0-.5.6-.9.8-1.2h0Z"/>
  <path class="st116" d="M158,382.6c-.2.5-.4.5-.7,0-1.6,0-2.7-1.7-4.2-2.1-4.4-1.8-6-1.1-9.9,1.3-1.9.8-4,1.7-4.6,3.8,1.2.5,2,.6,2.6,1.1l-.7.2c-1.3-.3-2.8.3-4.5-.7,3.5-4.3,7.8-7,12.9-8.6,3.6.9,6.7,2.7,9.1,5h0Z"/>
  <path class="st79" d="M257.9,246.3c-4.8,3-9.4,2.5-14.5.4,1.4-2.5,3.8-4.7,6.8-4.6s6,1.5,7.7,4.2Z"/>
  <path class="st196" d="M329.9,45.3c-.2,2.2-8.6-5.9-13.6-8.3-4.7-2.2-10.5,6-10.9,3.4,3.8-2.5,7.6-6.9,12.3-4,4.4,2.7,8.3,5.9,12.2,8.9Z"/>
  <path class="st174" d="M610.4,511.5l14.7,2.2c.8,1.5-.9,1.2-2.1.7-5.6.2-11.3-.8-16.8-1.2.4-.4,1.1-.8,2.1-.9-.6-.9,0-1.2,2.1-.8h0Z"/>
  <path class="st20" d="M458.9,83.7c-.6.3-.8,0-.7-.7,1.5-2.9,3.1-5.8,3.5-9.1-.4-3.6-1.1-7.1-2.1-10.5-1.1-2.1-2.6-3.7-4.2-5.6v-.7c8.3,5.7,9.9,18.3,3.5,26.7h0Z"/>
  <path class="st116" d="M257.2,318.2c-3.7,1.9-7.6,2.7-11.6,0,1.1-2,3.4-3.8,6-3.8,2.2,0,4.3,1.8,5.6,3.7Z"/>
  <path class="st71" d="M57.7,423.9v-.7l16.1-21h.7c-.3,1.7-1.7,3.2-3,4.8l-10.5,13.4c-1.1,1.4-1.9,3-3.4,3.6h0Z"/>
  <path class="st35" d="M151.7,438c-.2.6-.4.6-.7,0l-2.6-7.8c-1,2,1.2,17-1.6,16.3-.8-.9-.8-2.3,0-4.2,0-.7,0-1.4,0-2.1l.7-3.5c0-3.3-.5-6.7,1.1-10,2.3,3.4,1.9,9.3,3.1,11.4h0Z"/>
  <path class="st11" d="M233.4,333c-7,2.3-6.7,2.6-13.2-.3,2-2.5,4.1-4.2,6.6-4.6,2.8-.4,5.4,2,6.6,4.9h0Z"/>
  <path class="st65" d="M262.5,213.5c.4.2.4.4,0,.7-6.8,4.6-13.3,9.6-19.8,14.7-.1.2-.3.1-.7-.4,6.5-5.4,12.9-11.3,20.4-15Z"/>
  <path class="st104" d="M145.4,445c1.2-.3,1.2,1.1.7,2.1-1.9-.8-2.6-3.4-4.2-4.9-.8,0-.8.7,0,2.2,0,1.8.4,3.7,0,5.4-1.3-4.1-2.3-8.1-4.2-12.7,3.8,2,6.2,4.8,7.8,7.9h0Z"/>
  <path class="st25" d="M160.9,432.4c-1.8,6.8-4.3,13.4-4.7,20.4,0,.9-.3,1.9-.7,2.8-.8-1.4,0-2.6-.3-3.6-.2-3.6.9-7.8,2.1-11.2.3-1.6,1.6-3.2,1.2-5.5-.4-.2-.9.7-1.2.1.5-1.5,1.2-2.9,2.7-3.7.6-.4.8-.1.8.6h0Z"/>
  <path class="st149" d="M57.7,423.9c.4,1.6-14.8,19.3-16.1,21v-.7c1.9-2.1,3.3-4.9,5.2-7.4l10.9-13.7c0,.2,0,.5,0,.7Z"/>
  <path class="st199" d="M447,477.3c0,1.7-.2,3.3-.7,4.9,0,.3.3.8-.3,1.4-3.1-4.8,1.2-7-.2-11.2-1.4,1.2-1.5,2.9-3,3,.6-2.8,2.4-5.3,4.9-7.1-.4,3.7-.9,6.2-.7,8.9h0Z"/>
  <path class="st116" d="M529.7,517.8c0,3.8,12.8,2.5,14.8,1.2-1.3-1.5-2.9-1.8-3.5-3.2h.7c2,.8,3.2,1.6,4.4,3.7-6.2,2.2-12.1,2.8-18.4,0,.6-.6,1.2-1.2,2-1.8h0Z"/>
  <path class="st174" d="M280.1,441.6c-.4.3-.6,1.2-1.5,1.2.3-4.3,2.5-7.8,1.9-11.9-.9,1-1.1,2.1-2.1,2,.9-2.4,2.5-4.8,5.1-6l-3.5,14.6h0Z"/>
  <path class="st189" d="M451.2,512.3c-1.8,1.5,7.8,2.9,7.8,2.9l7.8-1.6c-.8-1.1-1.7-1.6-2.2-2.7-.6-.2-.6-.4,0-.7,1.6,1.1,2.6,1.8,3.8,4l-10,2-9.3-1.9c.4-1.3,1.5-1.4,2.1-2.1h0Z"/>
  <path class="st17" d="M214.1,358.7l-18.6,11.1c-.5.8-.9.6-.4-.3,4.1-3.6,13.3-8.8,18.3-11.5.2.3.4.5.7.7h0Z"/>
  <path class="st146" d="M171.3,340.5c.6-.3.8,0,.7.7-6.1,3-12.3,5.8-18.2,9.1-.6.3-.8,0-.7-.7,5.8-3.5,11.9-6.6,18.2-9.1Z"/>
  <path class="st91" d="M221.1,26.2c-.4.3-14.5,12.2-17.5,11.9,5.7-4.4,11.6-8.6,17.5-12.6,0,0,0,.7,0,.7Z"/>
  <path class="st147" d="M254.8,170c-.2.6-.4.5-.7,0,2.2-2.8,4.6-5.8,6-9.3,1.1-2.9-.3-5.4-2.5-6.8h.7c2.2.2,4.1,2.9,3.4,5.5-1.2,4.2-3.7,8.1-6.9,10.6Z"/>
  <path class="st149" d="M10.7,486.4c-.2-.3-.4-.5-.7-.7,3.7-5.6,7.8-10.8,11.9-16.1h.7l-11.9,16.8h0Z"/>
  <path class="st226" d="M303.9,210.7v-.7c1-.7,14.8-12.6,14.9-12.7.2-.2.4,0,.5.2-4.3,5.5-10,9.2-15.4,13.2h0Z"/>
  <path class="st93" d="M607.6,510.9l.7,1.4c-.5.6-1.3.8-2.1.9l-12.6-.9c-.6-1.5,7.8,0,9.2-1.1-1.6.1-2.7-1-3.6-1.2,2.9-.5,5.6,1.1,8.4.9Z"/>
  <path class="st146" d="M174.8,470.2c-.3.2-.5.4-.7.7l-14.7-6.5c-.4-.2-.9-.2-1.1-.5-.1-.3,0-.6.3-.9,5.7,1.4,10.8,5,16.2,7.2h0Z"/>
  <path class="st109" d="M303.9,210.7c-5,3.7-9.6,8.6-15.4,10.8,4.6-4.5,10.5-7.5,15.5-11.5v.7c0,0,0,0,0,0Z"/>
  <path class="st136" d="M182.5,362.9h-.7c0-2.6-3.2-4-5.5-3.6-2.7,1.8-4.6,2-5.6.8,1.7-1.7,3.7-3.7,6.3-3.6,3.5.2,6.3,2.5,8.4,5.2-.2,1.5-1.9.7-2.7,1.1h0Z"/>
  <path class="st95" d="M275.6,83c.6.1.7.4,0,.7-3.8,2.5-7.3,5.8-8,10.5-.2,1.3.8,2.6,1.2,3.5h-.7c-4.9-5.1,2.8-12.8,7.5-14.8h0Z"/>
  <path class="st146" d="M203.6,38.1c-.9,0-1.8,1.2-3.4,0-4.1-3.1-9.3-4.8-12.7-8.3-.6-.2-.6-.4,0-.7,5.4,3,10.4,6.9,16.1,9.1h0Z"/>
  <path class="st138" d="M268.1,370.6l-10.5,15.4c-.2-2.7,2-4.7,3.6-6.9,2.1-3,3.3-6.6,6.2-8.5h.7,0Z"/>
  <path class="st112" d="M259.7,270.5c-1.4-1.4-6.7-2.9-7.2-.1.2.2,0,.4-.6.5-1,0-2.6-.9-2.2-1.7.9-1.8,3.2-2.9,4.8-3.1,2.7-.3,7.1,2.6,6.6,3.9-.2.5-.9.5-1.4.5h0Z"/>
  <path class="st146" d="M285,198.9c-.8,2.4-12.8,8.8-14.1,9.7h-.7c2.4-2.5,11.5-8.3,14.8-9.7Z"/>
  <path class="st231" d="M283.6,445c-.8-.1-.8-1-.7-1.6.3-.6-.2-.8-1.5-.5-.3-.2-.5-.5-.8-.8,2.1-2.2,4.5-4.5,8.2-5.6l-5.2,8.5h0Z"/>
  <path class="st186" d="M214.1,461.7c-3.1,0-5.5,1.7-8.4,1.6-3.1,0-5.9-1.5-8.5-2.3-.6-.2-.6-.4,0-.7,1.5-.1,3.1.5,4.7,1.1,5.2,1.8,10.4-1.8,12.2.3h0Z"/>
  <path class="st208" d="M266,440.2c.1,0,0,.4-.4.8-4.6-2.9-11.2-5-13.1-10,4.2,3.5,8.7,6.7,13.6,9.2h0Z"/>
  <path class="st175" d="M399.3,508.8c.4.2.4.4,0,.7l-8-3.2c-2.6-1.1-8.9,4.2-8.8,2,8.2-5,9.5-2.9,16.8.6h0Z"/>
  <path class="st193" d="M259.7,270.5c-.4.3-.5.5-.7.6-2.3-.1-4.4-.3-6.5-.7-.2-.4-1.2-.7-1.2-1.1,0-.4.6-1.1,1.1-1.3,2.5-1.2,6.7-.3,7.3,2.5h0Z"/>
  <path class="st31" d="M271.5,437c-1.4-.5-1.4-2.2-3.2-3.3,0,2.4,1.6,4.5,1.9,7.2.2,1.1-.5,1.8-1,.5-.3-3.4-1.8-6.2-3.2-9.7,2.9.6,5,2.8,5.5,5.3h0Z"/>
  <path class="st182" d="M41.5,445l-9.7,12.7v-.8c3.2-4.2,6.1-8.7,9.7-12.6v.7h0Z"/>
  <path class="st111" d="M181.8,362.9h.7c-2.6,1.5-5.3,1.8-8,1-2-.8-3.8-1.1-6.1-1.1-.1-1.8,1.1-2.3,2.2-2.7,3.2,1.5,6.8,1.5,10.3,1.4l.9,1.4h0Z"/>
  <polygon class="st114" points="31.8 457.7 22.6 469.5 21.9 469.5 31.7 456.9 31.8 457.7"/>
  <path class="st226" d="M132,328.5c-3.3,4-6,8.5-9.8,11.9-.2.4-.4.4-.7,0,3.2-4.3,6.4-8.5,9.8-12.6.6-.3.8,0,.7.7Z"/>
  <path class="st33" d="M308.2,178.3c-3.9,4-7.7,8.4-12,12.1h-.7l12.1-12.5c.3-.3.9.1.6.5Z"/>
  <path class="st71" d="M244.3,183.3v-.7l9.8-12.6h.7c-.8,2.7-3.1,4.6-5,6.9s-3.1,5.1-5.5,6.4h0Z"/>
  <path class="st52" d="M298.3,325l-9.1,14h-.7l9.1-14.7c.6-.3.8,0,.7.7Z"/>
  <path class="st13" d="M497.5,522.9h-.7c-1.7-1-4.9-2-6.9-2-2.9,0-4.7,2.7-7.2,2.8-.5,0-.5-.2,0-.5,4.3-4.1,10.6-4.3,14.9-.2Z"/>
  <path class="st76" d="M437.1,478.5c-.3,1.6-1.4-1-2.1-.5-1,.7,1.7,3.4-.5,3.5-.5-2.7-2.4-4.8-3.5-8.1,2.3,1.4,4.8,2.8,6.1,5.1h0Z"/>
  <path class="st129" d="M143.3,313.8c-3,3.7-5.4,8.3-9.1,11.2-.2.6-.4.6-.7,0l9.1-11.9c.6-.3.8,0,.7.7Z"/>
  <path class="st232" d="M162.3,452c-.3.3-.5.4-.8,0,0-.4.9-1.4.6-1.8-.4-.7-1.6-.2-2-.3,1.7-1.9,3.9-3.8,7-4.4l-4.7,6.4h0Z"/>
  <path class="st152" d="M383.2,196.7c-2.5,4-5,8.1-7.8,11.9-.6,0-.7-.6-.4-1.1l6.4-9.9c.5-.8,1.1-1.4,1.8-1.6v.7Z"/>
  <path class="st56" d="M322.1,522.9v-.7c-.7-.5-.9-1-.7-1.4.3-.2.5-.4.7-.7,3.1.8,6.1,1.3,9.2,2.5-3.4.7-6.3.3-9.2.3Z"/>
  <path class="st35" d="M291.3,49.3c3.9-2.3,7.3-5.2,11.4-7,.4-.3.7.4.4.6l-10.2,6.8c-.4.3-.8.3-1.1.2-.2,0-.4-.4-.5-.6h0Z"/>
  <path class="st45" d="M450,484.3c-1.6-1.8-.2-.9,1.3-5.6-1,0-1.4.6-2.1.5,1.3-1.5,2.8-3.3,5.4-3.3-2.3,2.9-3.2,5.7-4.6,8.4Z"/>
  <path class="st220" d="M439.3,469.5v7c0,1.2-.6,1.9-1.5,1.9,0-3.7.6-7.4-.4-11.2,1.9.2,1.3,1.7,1.9,2.2h0Z"/>
  <path class="st57" d="M184.6,27.6c.3.6,0,.8-.7.7-1.9-.5-3.7-1.2-5.6-2.1-1.4-2.4-5.8,3-6.3.8,3.5-3.6,9-2.7,12.6.6Z"/>
  <path class="st151" d="M151,303.3c-1.8,3.9-4.9,7.2-7.7,10.5-.2-.3-.4-.5-.7-.7l8.4-10.5c0,.2,0,.5,0,.7Z"/>
  <path class="st160" d="M290.6,49.3c0,.3,0,.5,0,.8-2.5-1-5.9-4.4-7.8-7-.3-1.2-2.1-2.2-2.1-3.5h.7l9.1,9.7h0Z"/>
  <path class="st74" d="M239.4,189.7c0,1.4-6.1,8.5-7.5,9.8-.2.4-.4.3-.6,0,2.5-3.7,5.4-6.9,8.2-10.4.4.2.3.4,0,.7h0Z"/>
  <path class="st209" d="M211.3,454.1c.3.2.3.4,0,.7-9-4.1-9.5,2.1-11.9.1,5.7-3.7,6.7-3.8,11.9-.8h0Z"/>
  <path class="st151" d="M194.5,247.2c-.4,1.8-6.1,9.1-7.7,9.8-.2.6-.4.6-.7,0,2.6-3.7,5.7-6.9,8.4-10.5.6.1.5.4,0,.7h0Z"/>
  <path class="st207" d="M383.2,196.7c0-.2,0-.5,0-.7.8-2.1,5.9-10.2,7.7-11.2-1.7,4.4-5.2,7.9-7.7,11.9Z"/>
  <path class="st149" d="M160.1,36.7c-3.7,2.1-6.6,5.5-10.5,7-.4-.2-.4-.4,0-.7,3.3-2.3,6.4-4.9,9.8-7,.6-.3.8,0,.7.7h0Z"/>
  <path class="st232" d="M225.3,315.2c-3.2,2-6,5-9.9,5.6.1-.4-.1-1,0-1.4l.8-1.3c2.2-.3,4.5-1.3,6.9-2.9.4-.1,1-.5,1.4-.7.6-.3.8,0,.7.7h0Z"/>
  <path class="st28" d="M86.4,387.5c-.6.3-.8,0-.7-.7l7-9.1h.7c-1.6,3.7-4.6,6.6-7,9.8Z"/>
  <path class="st124" d="M264.5,225l.6.9c1.8-.2,3.5-.3,5.1-.2,3.3,2.3-6.8,2.6-8.4,1.2.4-1.5,1.6-2.2,2.7-2.6.6.1.6.4,0,.7h0Z"/>
  <path class="st158" d="M541.7,515.8c-.2,0-.5,0-.7,0-5.4-2-6.4.6-10.6,1.4,7.7-5.9,9.1-2.3,11.3-1.4Z"/>
  <path class="st156" d="M315.1,130.7c-.2.4-.4.4-.7,0-2.6-2.8-6.2-5.2-9.1-7.7.2-.5.4-.5.7,0,3.6,1.5,6.7,4.6,9.1,7.7Z"/>
  <path class="st51" d="M157.9,462c-4.4,3.4,3.6-9.4,3.6-9.9h.8c-2.1,2.8-3.1,6.5-4.4,9.9Z"/>
  <path class="st82" d="M181.1,336.3c.2,0,.5,0,.7,0l-9.8,4.9c-.2-.3-.4-.5-.7-.7.1,0,8-4.5,9.8-4.2h0Z"/>
  <path class="st184" d="M464.5,510.2v.7l-5.6-1.9c-1.3-.4-5.8,3-5.6,1.3,3.7-3.2,7.7-2.6,11.2-.1h0Z"/>
  <path class="st57" d="M307.4,311.7c-2,3.1-4.1,6.2-6.3,9.1-.4-.2-.4-.4,0-.7,0-3.5,4.4-5.8,5.6-8.4h.7Z"/>
  <path class="st97" d="M339.7,172.8c-1.2,3.2-3.1,7.2-6.3,8.6,1.4-3.5,4.5-6,6.3-9.3,0,.2,0,.5,0,.7Z"/>
  <path class="st96" d="M284.3,79.4c-2.6,1.9-5.9,2.6-8.5,4.4v-.7c-.3-.6,9.2-5.8,8.5-3.6h0Z"/>
  <path class="st81" d="M270.1,225.6c-.8,1.6-5.8,1.7-6.1.2,0-.3.2-.5.5-.9,1.1-.4,2.3-.7,3.6-.8,1.1.3,1.6.9,2,1.4h0Z"/>
  <path class="st107" d="M216.9,219.1c-2.3,2.4-4.3,5.1-6.3,7.7-.6.3-.8,0-.7-.7l6.3-7.7c.6-.3.8,0,.7.7Z"/>
  <path class="st136" d="M270.2,208.6c.2,0,.5,0,.7,0l-8.4,5.6v-.7c2.1-2.2,4.8-4.1,7.7-4.9Z"/>
  <path class="st67" d="M162.2,34.6c-.3-.2-.3-.4,0-.7,2.2-1.6,4.7-4,7.2-4.9.3-.2.6.2.5.6-2.7,1.7-4.9,4.3-7.7,5Z"/>
  <path class="st189" d="M216.8,461.1c-1.5-4.5-4.5-3.8-5.5-6.3,0-.2,0-.5,0-.7,3.1,1.8,5.5,3.9,7,6.8-.7.4-1.2.1-1.5.2h0Z"/>
  <path class="st118" d="M149.6,43.7c1,0-9.1,7.9-7.7,5,2.4-2.1,5.1-3.9,7.7-5.7v.7Z"/>
  <path class="st4" d="M240,231.5l-5.6,7.2v-.7c1.8-1.8,2.3-6.5,5.6-6.5Z"/>
  <path class="st226" d="M414.7,149.7l-5.6,8.4c-.2.3-.4.3-.7,0,1.4-3,3.2-6,5.6-8.4.2-.6.4-.6.7,0Z"/>
  <path class="st2" d="M64,58.5c-1.8,2.4-4,4.5-6.3,6.3h-.7c1.8-2.7,4.3-5.1,7-7,0,0,0,.7,0,.7Z"/>
  <path class="st57" d="M148.2,353.1c-2.3,1.6-4.6,2.9-7,4.2-.6.3-.8,0-.7-.7l7-4.2c.6-.3.8,0,.7.7Z"/>
  <path class="st83" d="M98.4,371.3c-.9,2.5-2.7,4.8-4.9,6.3h-.7c1.8-2.4,3.8-4.6,5.6-7,.4.2.4.4,0,.7Z"/>
  <path class="st191" d="M141.4,454.8c.3.2.4.5.6.5.5.1.8,1.2,0,1-3-.6-4.9-3.1-7.1-4.3.3-.2.5-.4.7-.7,1.9,1.2,3.8,2.5,5.8,3.5Z"/>
  <path class="st97" d="M292,193.2c.3.2.3.4,0,.7-2.3,1.7-4.3,4-7,5.1.7-2,2.7-2.9,4.2-4.4,0-1.2,1.8-2,2.8-1.4h0Z"/>
  <path class="st113" d="M226.7,205.8c0,2.9-3.5,4.3-4.9,6.3-.2.3-.4.3-.7,0l5.6-7c.4.2.4.4,0,.7Z"/>
  <path class="st24" d="M284.1,210.5c-.6-.1-.5-.3,0-.6l1.4-1.3c2.1.4,3.6,0,4.3-1.4h.7c.6.9,1.7.9,1.6,1.8-.5,2.6-6.2,1.8-8,1.5h0Z"/>
  <path class="st218" d="M373.4,211.3c-1.4,2.8-3.3,5.2-5,7.8-.3-.2-.5-.4-.7-.7l4.8-7.3c.4-.5,1.1-.6.9.1h0Z"/>
  <path class="st129" d="M221.8,212.1c-1.6,2.3-2.9,4.9-4.9,7-.3-.2-.5-.4-.7-.7l4.9-6.3h.7Z"/>
  <path class="st55" d="M482.7,523.6c-.4.4-5.5,7.1-5.3,4.1,1.7-2,3.4-3.6,5.3-4.7v.5Z"/>
  <path class="st57" d="M177.6,268.9c0,2.9-3.7,4.3-4.9,6.3h-.7l5.6-7c.4.2.4.4,0,.7Z"/>
  <path class="st24" d="M108.9,359.4c-.1.2-.5.6-.7.7l-2.1,2.8-2.8,2.1c-.2.5-.4.5-.7,0l4.9-6.3c1-1,1.5-.7,1.4.7h0Z"/>
  <path class="st108" d="M282.9,226.1c-1.6,2.1-3.8,4.9-6.4,5.1,1.8-2.2,4.2-3.9,6.4-5.8.6.2.6.4,0,.7h0Z"/>
  <path class="st117" d="M149.6,388.2c-3,1.7-6.4-.2-9.1-1.3.2,0,.5-.2.7-.2,2.9,0,5.5,1.7,8.4,1.5Z"/>
  <path class="st7" d="M421.1,139.7c-1.2,2.3-2.6,4.5-4.3,6.5v-.7c1.2-1.8,1.2-4.7,3.9-6.2.2-.2.7,0,.4.4h0Z"/>
  <path class="st97" d="M191.7,373.4c-.4.8-1.1,1.5-2.1,2.1-.9,1.2-2.4,2-3.5,2.8-.2.6-.4.6-.7,0,1.3-2.4,3.8-3.7,5.6-5.6.6-.3.8,0,.7.7h0Z"/>
  <path class="st134" d="M244.3,183.3c-.9,2.5-2.7,4.8-4.9,6.3v-.7l4.9-6.3c0,.2,0,.5,0,.7Z"/>
  <path class="st207" d="M108.9,359.4c-.6,0-1.2-.1-1.4-.7,1.5-1.9,2.7-3.8,4.4-5.6,2.3.2-3,4-2.9,6.3Z"/>
  <path class="st86" d="M197.1,456.9c-.2,1-.9,1.7-1.7,2.5.8.4,1.4.7,1.7.9v.7c-1.3-.4-2.5.3-3.2-.5.5-2.1,2-2.8,3.2-3.6h0Z"/>
  <path class="st209" d="M84.3,389.6c-.8,2.4-2.8,4.6-4.6,6.4-.4-.2-.5-.5-.3-.6,1.7-2.2,3-4.5,5-6.5.4.2.4.4,0,.7h0Z"/>
  <path class="st128" d="M230.9,311c.2,0,.5,0,.7,0-2.1,1.5-4.2,2.8-6.3,4.2-.3-.2-.5-.4-.7-.7,2.1-1.2,4-2.9,6.3-3.5Z"/>
  <path class="st119" d="M141.2,357.3c-2,1.1-3.8,2.9-5.6,4.2-.2-.3-.4-.5-.7-.7,1.9-1.4,3.6-3,5.6-4.2.2.3.4.5.7.7Z"/>
  <path class="st52" d="M194.5,247.2c0-.2,0-.5,0-.7l4.2-5.6h.7c-1.5,2-2.3,5.2-4.9,6.3Z"/>
  <path class="st170" d="M226.7,205.8v-.7c1.4-1.8,3.2-3.8,4.5-5.7h.6c-1.2,2.4-2.8,4.9-5.1,6.4h0Z"/>
  <path class="st160" d="M177.6,268.9v-.7c1.5-1.8,2.6-3.9,4.3-5.6,2.7-1-4.1,7-4.3,6.3Z"/>
  <path class="st129" d="M98.4,371.3c0-.2,0-.5,0-.7l4.2-5.6h.7c-.9,2.5-2.7,4.9-4.9,6.3Z"/>
  <path class="st35" d="M458.9,83.7c-1.6,2.1-2.6,5-4.9,6.3.5-2.7,3-4.7,4.2-7,.2.3.4.5.7.7Z"/>
  <path class="st35" d="M319.3,136.3c-.3.2-.5.4-.7.7l-4.2-6.3h.7c1.4,1.8,3.2,3.5,4.2,5.6Z"/>
  <path class="st137" d="M118,346.8c-.6.3-.8,0-.7-.7,1.2-2,2.8-3.7,4.2-5.6h.7c-1,2.2-2.7,4.4-4.2,6.3Z"/>
  <path class="st187" d="M157.2,386.8c-.2-.2-.4-.5-.6-.8,1.4-.4,1.9-1.1,1.4-2.1l-.7-1.4h.7c1.4,1.3,2.9,2,2.8,4.2h-3.6c0,.1,0,.1,0,.1Z"/>
  <path class="st138" d="M199.4,240.9h-.7c1.4-1.9,2.8-3.7,4.2-5.6h.7c0,2.6-2.9,3.9-4.2,5.6Z"/>
  <path class="st218" d="M397.3,175.4c-1.3,1.9-2.1,4.1-3.7,5.8-2.7,1.8,4.7-9.6,3.7-5.8Z"/>
  <path class="st22" d="M325.6,190.5l4.4-5.1c.6,0,.8.7.4,1.2l-4.2,4.4c-.3.3-.8-.1-.5-.5h0Z"/>
  <path class="st226" d="M153.8,350.3c-1.8,1-4,1.7-5.6,2.8-.3-.2-.5-.4-.7-.7,1.8-1.1,3.8-1.7,5.6-2.8.3.2.5.4.7.7Z"/>
  <path class="st87" d="M275.1,427.4c-1.3,1.6-.2,3.3-1.1,4.9-.8-2.9,0-5.3-.3-7.7,1.2-1.2.9,2.1,1.4,2.8Z"/>
  <path class="st202" d="M290.4,104c.3,1.2-3,1.4-3.2,0-.2-1.3,2.8-1.7,3.2,0Z"/>
  <path class="st217" d="M195.5,369.8c0,.2,0,.3,0,.5-1.1,1.8-2.4,2.9-3.9,3.1-.2-.3-.4-.5-.7-.7,1.3-1.3,2.8-2.1,4.2-3.3-.2.4,0,.6.4.3h0Z"/>
  <path class="st67" d="M290.6,207.3h-.7c-.8,1.8-4.1,2-5,.1-.5-.2-.6-.4,0-.6,2.2-1.6,4.6-1.2,5.8.5h0Z"/>
  <path class="st105" d="M259,271c-2.8.1-4.9.5-7.1-.2-.3-.5.3-.5.6-.5h5c.4,0,.9-.7,1.1-.7.5.1.4,1,.3,1.3h0Z"/>
  <path class="st92" d="M334.8,124.4c-1.2-.8-3-2.7-4.2-3.7-.7-2.9,7.2,5,4.2,3.7Z"/>
  <path class="st50" d="M409.1,158.1c-1.1,1.7-2.3,3.3-3.5,4.9v-.7c.4-1.5,1.5-3.3,2.8-4.2h.7,0Z"/>
  <path class="st201" d="M284.8,207.4c1.6,1.1,1.1,2-.7,2.6v.6c-.7-.1-2-.6-1.9-1.1.2-1.5,1.6-2.1,2.5-2.6-.3.2-.3.4,0,.6Z"/>
  <path class="st84" d="M301.1,320.8c-.9,1.2-2,2.9-2.8,4.2-.2-.3-.4-.5-.7-.7.9-1.5,2-3.4,3.5-4.2v.7h0Z"/>
  <path class="st63" d="M289.2,78.8c.6,1.7-2.9,2.9-4.2,2.3,1.3-.4,2.2-1.8,3.5-2.3.2-.6.4-.6.7,0Z"/>
  <path class="st215" d="M403.5,166.5c-.8,1.4-2.3,2.7-2.9,4.2-1.2-1.5.8-3.4,2.2-4.2.2-.6.5-.6.7,0Z"/>
  <path class="st66" d="M156,387.4c-2.3,1-4.4,1.1-6.4.8,1.9-1,4.5-2.1,6.4-.8Z"/>
  <path class="st148" d="M451.2,94.9v-.7c0-1.9,1.2-3.3,2.8-4.2-.4,2.1-1.7,3.2-2.8,4.9Z"/>
  <path class="st15" d="M289.2,78.8h-.7c-.2-.3-.5-.5-.8-.8,1.6-.6,2.9-1.9,5-2-.8,1.9-2.8,1.4-3.6,2.8h0Z"/>
  <path class="st200" d="M610.4,511.5c-.8,0-1.6.2-2.1.8-1.4-.2-2.9.5-4.3-.4,1.4-.9,3,.3,3.6-1,1.1,0,1.9.4,2.8.6h0Z"/>
  <path class="st58" d="M623.1,514.4c.8,0,1.8.2,2.1-.7,1.1.2,2.1.5,3.6,1.1-1.8.4-4.3.9-5.6-.4h0Z"/>
  <path class="st205" d="M295.5,190.4h.7c-1.4,1.2-2.8,2.4-4.2,3.5v-.7c-.2-1.3,1.5-3.2,2.8-2.8h.7,0Z"/>
  <path class="st172" d="M416.8,146.2c-.8,1-1.4,2.4-2.1,3.5h-.7c0-1.8,2-3,2.8-4.2v.7Z"/>
  <path class="st218" d="M405.6,163c-.8,1-1.5,2.4-2.1,3.5-.2,0-.5,0-.7,0-.8-2.2,2.4-2.9,2.8-4.2v.7Z"/>
  <path class="st99" d="M74.5,402.2h-.7c.9-1.2,2.1-2.4,2.9-3.5,2,.3-1.5,3.3-2.2,3.5Z"/>
  <path class="st94" d="M203.6,235.2h-.7c.9-1.2,1.9-2.4,2.9-3.5,2,.3-1.5,3.3-2.2,3.5Z"/>
  <path class="st60" d="M402.9,511.8h-.6c-1.2-.4-2.5-1.1-3-2.3v-.7c1.7.8,2.9,1.8,3.6,3h0Z"/>
  <path class="st101" d="M441.6,475.6c-1.1.3-1.3-.9-1.5-1.7-.2-.8-.4-2,.6-2.3.6,1.2,1,2.5,1,3.9h0Z"/>
  <path class="st68" d="M339,128.6v.7c-.7-1.1-2.1-2.5-2.8-3.5,0-.7.4-.8.8-.3,1.1.9,1.8,2,2,3.1h0Z"/>
  <path class="st27" d="M447.7,479.9c-.2.9-.7,1.6-1.4,2.2-.9-1.6.8-3.6.7-4.9,0,1-.1,2,.7,2.7Z"/>
  <path class="st162" d="M146.8,446.4c-.2.3-.4.5-.7.7,0-.8-.4-1.4-.7-2.1l1.4-2.8v4.2h0Z"/>
  <path class="st138" d="M276.7,431.7c-.2,1.4-.9,1.7-.9.2-.2-1.5-1.3-3.2,0-3.7.3,1.2.7,2.3.8,3.5h0Z"/>
  <path class="st212" d="M118,346.8c-.7.9-1.7,3.1-2.9,2.3.7-.5,1.7-2.2,2.2-3,.2.3.4.5.7.7Z"/>
  <path class="st80" d="M132,328.5c-.3-.2-.5-.4-.7-.7.7-.9,1.4-1.9,2.1-2.8h.7c-.3,1.3-1.2,2.5-2.1,3.5h0Z"/>
  <path class="st214" d="M584.5,511.1c-1.3-.3-2.9.2-4.2-.1v-.7c1.7.4,3.5-.4,5.6.2-.3.7-1,.5-1.4.7h0Z"/>
  <path class="st8" d="M162.2,34.6c-.4.9-1.2,1.6-2.1,2.1-.2-.3-.4-.5-.7-.7.9-.6,1.9-1.5,2.8-2.1v.7Z"/>
  <path class="st181" d="M187.5,29v.7c-.9,0-1.9-.8-2.8-.7-.5,0-.7-.2-.7-.7.2-.3.4-.5.7-.7.7.6,2,.9,2.8,1.4Z"/>
  <path class="st141" d="M153.7,441.5c0-1.4,1.2-2.3,1.7-3.5,1.2,1.2-.4,3-1.7,3.5Z"/>
  <path class="st229" d="M86.4,387.5c-.6.8-1.2,1.7-2.1,2.1v-.7c.6-.6.9-1.5,1.4-2.1.3.2.5.4.7.7Z"/>
  <path class="st16" d="M184.6,259.3c.6-.3,1.1-1.7,1.5-2.3h.7c0,.6-.3,1.2-.6,1.7-.3.4-1,1.6-1.5.6h0Z"/>
  <path class="st144" d="M160.9,432.4c-.3-.2-.5-.4-.8-.6.7-.5.8-1.9,2-2.2.7,1.5-.9,2-1.1,2.8h0Z"/>
  <path class="st10" d="M306,123h-.7c-.4-.3-1-.5-1.4-1-.3-.3-1.2-.9-.2-1.2.6.7,2.1,1.1,2.3,2.2Z"/>
  <path class="st3" d="M183.9,380.6c.6-.5,1.1-1.6,1.5-2.3h.7c-.1.5-.4,1.6-.9,2-.3.3-.9,1.3-1.3.2h0Z"/>
  <path class="st223" d="M210.6,226.8c-.3.4-.6,1-1,1.4-.3.3-1,1.2-1.2.2.6-.4,1-1.7,1.5-2.3.3.2.5.4.7.7h0Z"/>
  <path class="st90" d="M282.9,226.1v-.7c.7-.6,1.7-.8,2.3-1.5,1,.4,0,.9-.2,1.2-.4.5-1.5.8-2.1.9h0Z"/>
  <path class="st185" d="M268.1,224.2c-1,.8-2.4,1.3-3.6.8v-.7c1.5-.5,2.7-.3,3.6-.1h0Z"/>
  <path class="st210" d="M151.8,440.1c-.2.5.2,1.1-.7,1.5-.4-1.5,0-2.5-.2-3.6h.7c.3.5-.2,1.6.1,2.1h0Z"/>
  <path class="st153" d="M157.1,452.7c0-.8,1.2-.9,1.5-1.5,1.2.1.4.7,0,1.1-.5.6-1.1,1.1-1.6.4Z"/>
  <path class="st140" d="M146.8,440.1c0-1.2-.5-2.8.7-3.5,0,1.2.5,2.8-.7,3.5Z"/>
  <path class="st110" d="M243.5,23.4c1.9,6.4,5.3,11.2,10.1,14.5,1.8-1.1,3.4-1.5,5-1.4l24.2,25c1.3,1.1,1.6,2,.8,2.6-.2,0-.5,0-.6,0-2.4-.4-4.8-1.3-7-2.9-8.1-3.9-16.2-7.6-24.5-11-3.8,2.1-7.5,3.9-11.3,5.4-4.3,3.5-9.5,6.5-14.7,8.6-1.4.8-3,1.6-4.6,1.8-.2-.2-.4-.4-.4-.4,1.5-3.3,3.6-7,5.7-9.9.2-.1.6-.5.7-.7,1.5-3.7,1.2-4.4-2.8-3.6-16.1,7.3-33.4,14.9-49.8,21.1-2.5,3.6-7,1.9-2-.6,2.8-2.4,5.8-4.6,9.1-6.5,1.3-.8,3-1.8,4-2.9,0-.8,1.4-1.8,2.3-1.5,1.1-.5,1.7-1.4,2.6-2,1.2-1.4,2.7-2.5,4.4-3.5,2.2-1.8,4.6-3.3,7-4.4l3.3-2.6c4.1-3.9,9.1-7.4,14.2-10,1.3-1,3.7-2.1,4.7-3.4,0-.8,1.4-1.8,2.3-1.5,1-.3,1.8-1.6,2.6-2,1.3-1.4,2.8-2.6,4.6-3.6,2.8-2.1,5.8-4,9-5.5.5,0,.9.4,1.3.7h0Z"/>
  <path class="st110" d="M176.9,36c1.7,5.5,5.1,7.6,9.9,10,.6.4,1.3,1.5,2.8,1.4-.3.8-1,.9-1.3,1.3-4.6,3.7-9.6,7.1-14.9,9.8-2.2,2.5-4.8,4.4-7.9,5.6l-.6-.7c-1.1-1.5-1.1-3.6,0-6.3.3-.9,0-1.6-.9-2l-34.5,16.6-1.9.3h-1.4c-.7-1,2.2-3,3.5-3,3.3-3.3,7.1-6.1,11.2-8.4,4.4-3.8,8.9-7.8,14-10.5,1-1.7,2.6-2.9,4.9-3.5,2-2.2,4.9-4.8,7.7-5.6,1.6-1.7,6.5-6.5,8.5-5.6.3.1.5.4.6.7h0Z"/>
  <path class="st143" d="M313,46.5c1.2.7,2.2,2.1,2.3,3.6.4.6,1,1.3,1.3,1.9,1.7,2.2,3.5,2.8,5.5,1.7l.8.4c.2,0,.6.1.7,0,1.6.4,3.1,1.3,4.2,2.9,1.5.1,2.8,1.4,3.5,2.8,1.7.2,4,2.5,4.9,4.2,2.1.8,3.8,2.3,5.1,4.3,1.8.7,6.5,3.7,5.4,5.6h-.7c-6-1.5-11.5-4.7-16.8-7.8-2.6-.7-5.4-2-7-4.2-3.3.6-6.6,1.8-9.8,3.5-.8,1.2-2.4,2.7-3.5,1.4h-.7c0-1.7.6-3.3,1.5-5,.2-.2.3-.5.4-.7l-1.2-1.4c-5.3,2.6-10.7,5-16.2,7-.7,0-.9-.1-.7-.8,0-.4.8-.9.8-1.2,1.7-2.2,3.6-4.2,5.8-5.8.9-.5,1.9-1.9,2.7-2.6,2.4-3,5.7-6.8,9.3-8.7.7-.8,1.8-.9,2.7-1.3h0Z"/>
  <path class="st163" d="M316.5,520c1.5.4,3.4.6,4.9.7.5.3,1,.9,2.2.9-.3.8-.8.6-1.5.5h-3.5c-96.5-.2-193.1-.5-289.7-.7-1.1,0-2.4.2-3.5,0-1.5-.4-1.6-1,0-1.4,1.1.2,1.7.7,3.7.7h286.5c.8-.2,1-.3.9-.7h0Z"/>
  <path class="st206" d="M256.9,152.5c-72.8.6-149.3.6-222.4,0-.8,0-2,.2-2.8,0,0-.4,0-.6.9-.7h223.4c.8.2,1,.3.9.7h0Z"/>
  <path class="st40" d="M256.9,152.5v.7H35.4c-.7-.2-1-.3-.9-.7h222.4,0Z"/>
  <path class="st34" d="M447.7,55c0,.3-.2.7-.8.7h-102.9c-1.4,0-1.5-.2-2.1-.7h105.9Z"/>
  <path class="st72" d="M250.6,34.6c1.1,1,2.2,1.7,3.5,2.1,1.2-.6,2.9-.4,4.4-1l24.2,25c1.3,1.4,2.2,2.8,3.8,3.7-1.3.4-2.2,0-2.9-.4,0-1.5-1.4-2.5-2.6-3.7l-23.1-23.9c-1.8.8-2.8,1.9-4.4,2.3-5.6-3.4-8.5-9.4-10-15.4,3,2.7,3.8,9.6,7.1,11.2h0Z"/>
  <path class="st72" d="M223.9,51.4l.7.3-44.8,19.5c-1.8.8-3.5,1.5-5,2.1-.6.3-.8,0-.7-.7l7.3-3.3,42.5-17.8h0Z"/>
  <path class="st138" d="M165.1,57.1c0-.5,0-1.3-.6-1.5,0,0-10.7,5.1-12.5,6l-20.4,9.6c-1.3.6-2.6,1.9-3.7.7l38.6-18.7c.5,1.7-.6,2.8-1.4,3.8h0Z"/>
  <path class="st118" d="M275.8,61.3h-.7c-6.9-2.3-13.3-6-20.1-9.4-6.2-3.1-8.1,2.9-15,4.5-.4-.2-.4-.4,0-.7l11.3-6.3c9.3,3.2,12.7,6.8,23.5,10.7.6.2.8.8.9,1.2h0Z"/>
  <path class="st180" d="M134.8,55c-.6.5-.9.7-2.1.7h-56c-.6,0-.9-.5-.8-.7h58.9Z"/>
  <path class="st173" d="M309.9,61.2c-.5-3.4-11,5.8-17.4,5.6l18.3-8.8c.4,1.4-.4,2.2-.8,3.2h0Z"/>
  <path class="st188" d="M374.7,479.4l-21.7-4.2c.6-1.3,2.4-.6,3.8-.3,6.6,1.6,13,2.9,19.3,4-.5.8-1.1.4-1.4.4h0Z"/>
  <path class="st35" d="M173.4,59.2c-.4-.2-.4-.4,0-.7,4.9-3.3,9.6-7.1,14.9-9.8-3.5,4.8-9.8,7.2-14.9,10.5Z"/>
  <path class="st29" d="M346,74c-5.3.3-12.3-4.9-17.5-7.8h.7l16.8,7.8Z"/>
  <path class="st100" d="M318.6,457.6c-.6,1.5-2.3.4-3.6,0-3-.8-14.5-3.3-15.3-5,6.3,1.6,12.7,3.2,18.9,4.9Z"/>
  <path class="st67" d="M154.5,50.1c.2-.6.5-.6.7,0-4.6,3.6-9.2,7.3-14,10.5-.3-.2-.3-.4,0-.7,1.1-.9,11.3-10,13.3-9.8h0Z"/>
  <path class="st98" d="M195.9,480.1c.2.6-.6.9-1.1.6-2.1-1.5-14.4-5-16.4-7.6,2.4-.2,4.2,1.7,6.5,2.6,3.9,1.4,7.5,2.9,11,4.4Z"/>
  <path class="st138" d="M219,38.7c-4.7,3.4-9.7,6.5-14.2,10-.7.2-.6-.7,0-1l13.2-9.4c.5-.3,1.2-.2,1.1.4h0Z"/>
  <path class="st39" d="M240.1,56.4c1.1.1-16.5,10.7-14.7,7.9l14.7-8.6v.7Z"/>
  <path class="st26" d="M244.3,409.9c-.9,6.1,1.5,12.3,4.2,17.5-3.2-.3-2.3-6-4.6-6.7.4.1-.8-10.3-.2-12.3.9.2.6.9.6,1.4h0Z"/>
  <path class="st183" d="M362.8,469.5l17.5,3.5c0,.7-1.2,1-2.1.8l-16.9-3.8c.4-.5.9-.4,1.4-.5Z"/>
  <path class="st211" d="M172.1,72c-.3.7-1.1.9-1.5,1.9,1.5-.4,2.4-.9,3.5-1.4.2.3.4.5.7.7-2.3,1.3-4.5,3.9-7.8,1.9,1.7-1.5,3.4-2.9,5.1-4,.9-.2.9,0,0,.8h0Z"/>
  <path class="st156" d="M141.2,59.9v.7c-3.6,3-7.4,5.8-11.2,8.4-.6-.2-.6-.4,0-.7,2.8-3.7,7.7-5.6,11.2-8.4Z"/>
  <path class="st65" d="M186.8,46c-5-1.4-9.9-4.6-9.9-10-.3-.2-.3-.4,0-.7,1.7,1.6,2,4.2,3.7,6.1,2.4,2.8,9.2,4.1,6.3,4.5h0Z"/>
  <path class="st98" d="M280,455.5c-5-1.8-10.8-2-15.4-4.9,1.2-.6,1.9-.3,3.1.3,4,1.7,8,2.9,12.4,4,.8,0,.6.7-.1.7h0Z"/>
  <path class="st177" d="M282.8,191.7c1.1.1,1.8.6,2.2,1.4,0,1.2-1.8,1.9-2.2,2.8-.5,1.4-3.9,1.7-3.5,0,.2-1,.8-1.9,1.4-2.7.4-1.2.8-2.4,1.2-3.6,1.2-.4,1.3,1.2.8,2.1h0Z"/>
  <path class="st225" d="M217.6,313.9c.4-.4,1.1-.6,1.5-.1.6,0,.7.3.2.7.5.7.3,1.5-.2,2.1.8,1.8-3.3,3-2.9,0-.5-.5-3-.2-2-1.5-.2-1.5,0-1.8.8-.8-.3-1.7.1-1.7,1.3-.6.5-1.8.8-1.7,1.3.1h0Z"/>
  <path class="st157" d="M318.6,160.2l2.1-9.9c.5-2.2-2.5-10.6-.7-9.8,2.2,6.4,2.1,13.8-1.4,19.6h0Z"/>
  <path class="st32" d="M310.3,47.8l-9.3,8.7c-.4.2-.8-.2-.5-.5l7.8-7.9c.8-.8,1.4-.5,2-.3Z"/>
  <path class="st69" d="M24,146.9c-4.7-2-5.6-15.4-2.8-18.2-1.5,6.5-.8,12.7,2.8,18.2Z"/>
  <path class="st54" d="M173.4,59.2c-2.8,1.9-5.4,6.4-9.1,5.6-.2-.4-.1-1.2.7-1.4,2.8-.4,5.4-2.9,8.4-4.9,0,0,0,.7,0,.7Z"/>
  <path class="st221" d="M226.7,55c0-1,.2-2,.4-3.2-.9-.2-1.7-.1-2.5-.2-.2,0-.5-.2-.7-.3,1.7-.7,3.2-2.1,6.1-2.1-.7,2.2-2,4-3.3,5.7h0Z"/>
  <path class="st197" d="M346.7,74c-.1-1-.8-1.7-1.7-2.5l-3.7-3.1c-.3-.3-.2-.5,0-.7,2.9,1.6,5.3,3.8,7.9,6.4-.8.8-1.7.3-2.6,0Z"/>
  <path class="st62" d="M242.2,22.7l-6.3,4.4c-1,.7-1.8,1-2.7,1.2,2.3-2.5,5.7-5,9-5.5Z"/>
  <path class="st57" d="M322.1,62c.3.2.3.4,0,.7-5-.2-5.7,2.8-9.8,3.5-.4-.2-.4-.4,0-.7l5.8-3.3c1.4-.8,2.7-1,4-.2h0Z"/>
  <path class="st179" d="M220.7,66c-.4,0-1,.3-1-.4l3.6-6.4c.8-1.5,1.4-3,2.8-3.5l-5.3,10.3Z"/>
  <path class="st127" d="M176.9,35.3v.7c-.3-.2-1.3-1-1.8-.5-2.4,2.1-4.9,3.7-7.3,5.4-.6-.2-.6-.4,0-.7,1.8-1.9,6.8-7.1,9.1-4.9h0Z"/>
  <path class="st139" d="M290.6,50.1c.6,3.4-4.1-3.1-5.4-3.7-2-.8-2-1.9-2.4-3.4l7.8,7Z"/>
  <path class="st23" d="M219.8,311c.3,1-1.1,2.8-2.2,2.9-.4-.2-.9,0-1.3-.1-.9-1.6-.7-3.6.8-6.2.2.2.7,0,.8,0,.1.6-.2,2.2.7,2.9.3.3.7,0,1.2.3h0Z"/>
  <path class="st190" d="M181.1,65.5c-2.7,2.5-5.8,4.8-9.1,6.5v-.8c2.5-1.6,4.7-3.5,7.2-5.3.6-.4,1.5,0,1.8-.3h0Z"/>
  <path class="st1" d="M216.3,313.8c-.3.4-.9.4-1.3.6-.8-.4-1.8-1.4-.9-2,1.8-1.8,1.9-5.6,3-4.7,0,2.1-.4,4.1-.8,6.2h0Z"/>
  <path class="st12" d="M167.8,40.2v.7l-7.7,5.6c-.3-.2-.3-.4,0-.7,2.2-2.3,4.7-4.4,7.7-5.6Z"/>
  <path class="st166" d="M461.7,73.9c.2,3.3-3.1-14.6-2.8-10.1,0-.2.3-.5.7-.4,1.8,3.3,2.6,6.7,2.1,10.5h0Z"/>
  <path class="st54" d="M282.9,64.2c-2.8,1.8-5.3-2.1-7.7-2.9.2,0,.5,0,.7,0,2.5.4,4.8,1.6,7,2.9h0Z"/>
  <path class="st118" d="M298.3,59c-1.5,2.3-3.3,4.4-5.8,5.8-.4-2.2,2.3-3.2,3.8-4.8l1.2-1.2c.2-.2.8-.7.8.2h0Z"/>
  <path class="st227" d="M25.4,520v1.4c-3.1-.4-5.6-2.2-8.4-3.5,1.3-1.8,1.7,1.1,8.4,2.1h0Z"/>
  <path class="st0" d="M179.7,400.8c-.5-1.9-.5-7.6,0-9.8,1-2.3,1,12.1,0,9.8Z"/>
  <path class="st161" d="M201.5,51.3c-2.1,1.6-4.3,3.8-7,4.4.5-1.2,7.1-6.5,7-4.4Z"/>
  <path class="st126" d="M329.2,66.2c-.2,0-.5,0-.7,0-2.4-.1-4.8-1.5-6.3-3.5v-.7l7,4.2Z"/>
  <path class="st132" d="M280.8,193.2c-.1.6,1.4,1.3,1.1,1.8-.4.6-1.8,1.1-2.5.9,0,1.1-1.1,1-1.3,0v-1.1c.2-.6.5-1.1,1-1.5.5.3,1.2,0,1.8,0h0Z"/>
  <path class="st108" d="M165,63.4c0,.3-.1.6-.1,1,0,.3-.1.6-.6.4-1.5-2.1-.7-5.6.8-7.7.4,2.1-.8,4.2,0,6.3h0Z"/>
  <path class="st115" d="M106.8,402.2v10.5c-2-2.3,0-10.3,0-10.5Z"/>
  <path class="st98" d="M266,505.3c-.2,1-1.6.8-2.5.5l-12.3-4c-.8,0-.6-.8.1-.7,4.8,1.8,9.9,2.6,14.7,4.2Z"/>
  <path class="st171" d="M317.9,52.2c.9.9,2.3,1.3,3.5.7.6,0,1.1.8,1.4,1.3-1.3.7-2.6,1-4,.4-1.2-.6-1.7-1.4-2.3-2.6,0-.6.5-.3.7-.2s.5.4.7.4h0Z"/>
  <path class="st157" d="M228.8,251.4c-.9,2.8,1.2,5.7.7,8.4-1-2.9-2.2-5.9-1.2-9.9.6.3.5.9.5,1.5h0Z"/>
  <path class="st130" d="M282.9,443.4c-.9-.2-1.1,1.7-1.6.7-.2-.5,0-.9,0-1.2.8-1.1,2-2,3.6-2.8,0,1.9-1.2,2.5-2.1,3.3h0Z"/>
  <path class="st118" d="M336.9,64.1h-.7l-4.9-4.2v-.7c2.4.7,4.1,2.9,5.6,4.9Z"/>
  <path class="st227" d="M183.9,28.3c.3.2.5.5.7.7-3.1.2-1.8-1.4-6.6-2.1-.4,0-.6-.7.3-.7,2.1,0,4,.8,5.6,2.1Z"/>
  <path class="st131" d="M254.8,12.2c-4.8-2.4-8.2-.7-8.4-2.1h4.9c1.9,0,2.8,1,3.6,2.1h0Z"/>
  <path class="st47" d="M160.1,45.8v.7c-1.6,1.2-3.4,2.3-4.9,3.5-.2,0-.5,0-.7,0,.6-2.7,4.2-2.7,5.6-4.2Z"/>
  <path class="st94" d="M341.3,67.7v.7c-1.8-1.4-3.5-2.9-5.2-4.3.2,0,.5,0,.7,0,2.3-.3,2.8,2.8,4.5,3.6h0Z"/>
  <path class="st159" d="M270.3,29.2c.8,1.7-3.6-1.8-4.3-4.4,2.1.7,2.9,3.1,4.3,4.4Z"/>
  <path class="st123" d="M194.5,55.7c-.7,1.9-2.9,2.4-4.4,3.5,0-2,2.6-3.1,4.4-3.5Z"/>
  <path class="st89" d="M129.9,68.3v.7c-1.3.9-2.7,1.8-3.5,3.1-.3.7-.5.3-.8,0-.6-.5-.8-.8-.3-1.1,2-1.2,3-2.6,4.6-2.8h0Z"/>
  <path class="st77" d="M233.2,28.2c-1.4,1.5-2.6,2.7-4.6,3.6-2,.2,2.7-3.3,4.6-3.6Z"/>
  <path class="st5" d="M308.8,66.9c.6.2.6.4,0,.7-.2,0-.9.1-1.4-.1.1-2.1.7-4.2,2.2-5.5.5,1.8-1.8,3.3-.8,5h0Z"/>
  <path class="st98" d="M261.8,449.9c-1.8-.7-4.1-.7-5.6-2.1,1.7.5,3.9,0,5.7,1.5.8,0,.5.7-.1.6h0Z"/>
  <path class="st222" d="M279.3,195.9c.9,1.1,2.4.7,3.5,0,.9,2.3-5.4,1.4-5.5,1.1-.2-.3.7-.8.7-1.2h1.3q0,0,0,0Z"/>
  <path class="st102" d="M327.7,56.4c.5.2.5.4,0,.7-1.4-1-2.9-1.8-4.2-2.9,1.8-1.5,2.9,1.8,4.2,2.3h0Z"/>
  <path class="st178" d="M294.8,190.4c-1.3.5-2,1.7-2.8,2.8-.9.4-2.1.7-2.8,1.4-.3.1-.8-.2-.7-.3.2-.1.4-1.2.7-1.2,3.9-.7,3.8-4.8,5.6-2.6h0Z"/>
  <path class="st216" d="M155.2,452c-.2-.5-1-.9-.7-1.9,1.2-3.7,1.2-8.8,2.8-9.3l-2.1,11.2h0Z"/>
  <path class="st78" d="M223.2,315.2c-2.1,2-4.9,3.5-7.7,4.2.4-.9.4-1.8.6-2.7.6.4,1,1.4,1.8,1.3.7-.1.8-1.1,1.1-1.4,1.4-.3,2.8-1.6,4.2-1.4h0Z"/>
  <path class="st43" d="M312.3,66.2c-.8.9-2.5,3.2-3.5,1.4,0-.2.1-.5,0-.7,1.3-.1,2.4-.8,3.5-1.4v.7Z"/>
  <path class="st0" d="M346.7,146.2l-.7-5.6c.9,1.7,2.4,3.9.7,5.6Z"/>
  <path class="st121" d="M283.5,188.2c1.2.2.5,2.5,0,3.5-.2.6-.5.6-.8,0l-.8-2.1c.2-.5,0-1,.6-1.3.4-.2.7,0,1,0h0Z"/>
  <path class="st233" d="M315.3,50.1c-.7-1.2-2-2.1-2.3-3.6,1.4-.6,3.2,2.4,2.3,3.6Z"/>
  <path class="st49" d="M331.3,59.2v.7c-1.1-1-2.3-2-3.5-2.8v-.7c1.5.6,2.7,1.3,3.5,2.8Z"/>
  <path class="st178" d="M195.5,370.3c.3,1.9-4.9,5.1-6,5.2.6-.8,1.1-1.7,2.1-2.1,1.7-.6,2.2-2.7,3.9-3.1h0Z"/>
  <path class="st176" d="M220.4,311.7c1,.4-.5,1.9-1.4,2.1-.1.2-.4.2-.7.4s-.5-.1-.8-.3l2.2-2.9.7.7h0Z"/>
  <path class="st59" d="M254.1,36.8c-1.7.8-2.5-.6-3.5-2.1,1.4.2,2.6,1.1,3.5,2.1Z"/>
  <path class="st120" d="M214.1,312.4c.4.6.7,1.3.9,2l-.8.8c.2-1.2-.9-1.5-2.2-2.3.5-.8,1.5-.4,2.2-.5h0Z"/>
  <path class="st75" d="M285,193.1c-.5,0-1.1.2-1.7,0-.6-.2-.3-.8-.5-1.3h.8c0-.6.3-.8.8-.7.1.3,1,.5,1.1,1,0,.4-.4.7-.4,1h0Z"/>
  <path class="st228" d="M247.1,292.1c-1.2-1.1-1.2-3.8,0-4.9.4,1.2-.1,3.6,0,4.9Z"/>
  <path class="st213" d="M279,193.2c.1.4.5.8.3,1.1-.3.4-.9,1-1.3.5-.4-.8-1.1-1.6-.7-3,.9.3,1,1.2,1.6,1.5h0Z"/>
  <path class="st6" d="M141.9,442.2v2.2c-1.1-.6-1.6-2-1.3-3.6,1,.1.9,1,1.3,1.4h0Z"/>
  <path class="st38" d="M284.4,191.1c-.3.3-.5.5-.8.7v-3.5c.8,0,1.6-.1,1.3.9-.1.5-.5,1.2-.5,1.9Z"/>
  <path class="st73" d="M219.2,314.5c-.1-.2,0-.5-.2-.7l1.4-2.1c.3,0,.7-.2,1.5.2-.9,1-1.7,1.9-2.6,2.6h0Z"/>
  <path class="st230" d="M187.5,61.1c-.7.3-1.7,1.1-2.3,1.5-.9-.4.3-1.1.6-1.4.4-.5,1.6-1.1,1.7,0h0Z"/>
  <path class="st69" d="M106.1,362.9c0-1.3,1-2.3,2.1-2.8,0,1.4-1.1,2.1-2.1,2.8Z"/>
  <path class="st19" d="M226,33.8c-.7.2-1.8,1.1-2.3,1.5-.9-.4.3-1.1.6-1.4.5-.6,1.6-1.1,1.7-.1Z"/>
  <path class="st48" d="M321.4,52.9c0,.8-1.1.8-1.7.7-.8,0-1.6-.6-1.8-1.4,1.2.4,2.3.6,3.5.7h0Z"/>
  <path class="st122" d="M318.6,522.1H29.8c-.8-.2-1-.3-.9-.7h288.8c.8.2,1,.3.9.7Z"/>
  <path class="st219" d="M153.1,380.4c-1.2,1.9-3.5-2.4-6.3,0-1.2,1.1-2.6.8-3.6,1.3,4.5-3.7,5.5-3.8,9.9-1.3h0Z"/>
  <path class="st167" d="M156.6,386.1c-.7-.1-1.8.4-2.2-.5,1.2-.3,1.7-.1,2.5-.1s1.4-.4,1.1-1.4c.7.4,1.7.8,1.4,2h-2.8Z"/>
  <path class="st41" d="M271.5,479.5c-9.2,2.4-12.7,3.3-22.8-.5,2.4-3.1,6.6-6.3,10.9-6.5,4.6-.2,9,3.2,11.8,7h0Z"/>
  <path class="st70" d="M319.2,496.6c-6.6,2-13.2,2.7-19.2-.6,3-2.8,6.5-5.5,10.1-5.2s6.7,3.1,9.1,5.8h0Z"/>
  <path class="st103" d="M581.4,523c-6.4,2.1-9.9,2.8-16.1-.1,1.8-2.4,5.3-5,8.5-4.7s5.5,2.6,7.7,4.8Z"/>
  <path class="st145" d="M148.1,406.4c4.4,4.5-6.9,3.5-9.1,2.1-.1,0,0-.4,0-.8,2.5-3,6.6-3.9,9.1-1.3Z"/>
  <path class="st85" d="M139,407.7c2.5,1.9,6.2,1.8,9.6,1.2.4-1.2-.4-1.7-.4-2.5.7.7,2.9,1.7,2,2.5-3.1,2-6.9.9-10.5.2-1.4.5-1.9-1-.6-1.4Z"/>
  <path class="st203" d="M256.2,246.1c-4.1,1.6-7.6,1.1-11.3,0,1.8-1.7,3.4-3.2,5.3-3.2,2.2,0,4.3,1.1,6,3.2h0Z"/>
  <path class="st46" d="M254.4,317.5c-2,1.7-5.4,1.4-7.2,0l3.8-1.8c1-.5,3.2.4,3.3,1.7h0Z"/>
  <path class="st100" d="M232.3,332.5c-2.9,1.1-6.3,1.8-10,.2.2-2.3,2.5-2.9,4.2-3.3,2.1-.5,3.8.6,5.8,3.1h0Z"/>
  <path class="st18" d="M181.8,362.9c-2.1,0-12.3.7-11.2-2.7,2.5-.5,4.2-2.4,6.6-2.3,2.7,0,4.6,1.6,6.6,4.1-.7.4-1.6.3-2.1,1h0Z"/>
  <path class="st78" d="M289.9,207.2c.4.5,1.3,2,.3,2.4-2,.8-4.1.2-6,.3,0-.9.2-1.8.7-2.6,1.7-.2,3.4-.4,5-.2h0Z"/>
</svg>